<svg t="1694077499522" class="icon" viewBox="0 0 1024 1024" version="1.1" xmlns="http://www.w3.org/2000/svg" p-id="7456" width="200" height="200"><path d="M512 512m-512 0a512 512 0 1 0 1024 0 512 512 0 1 0-1024 0Z" fill="#FDEBED" p-id="7457"></path><path d="M665.6 742.4H358.4c-28.16 0-51.2-23.04-51.2-51.2V332.8c0-28.16 23.04-51.2 51.2-51.2h307.2c28.16 0 51.2 23.04 51.2 51.2v358.4c0 28.16-23.04 51.2-51.2 51.2zM371.2 512h115.2c7.68 0 12.8-5.12 12.8-12.8s-5.12-12.8-12.8-12.8h-115.2c-7.68 0-12.8 5.12-12.8 12.8s5.12 12.8 12.8 12.8z m192-115.2H371.2c-7.68 0-12.8 5.12-12.8 12.8s5.12 12.8 12.8 12.8h192c7.68 0 12.8-5.12 12.8-12.8s-5.12-12.8-12.8-12.8z" fill="#EC3A4E" p-id="7458"></path></svg>