<svg t="1692945748257" class="icon" viewBox="0 0 1024 1024" version="1.1" xmlns="http://www.w3.org/2000/svg" p-id="8161" width="200" height="200"><path d="M808 814.83H216c-16.57 0-30-13.44-30-30v-328c0-179.76 146.24-326 326-326 179.75 0 326 146.24 326 326v328c0 16.56-13.44 30-30 30z m-562-60h532v-298c0-146.67-119.32-266-266-266-146.67 0-266 119.33-266 266v298z" p-id="8162" fill="#6B6B6B"></path><path d="M512 190.84c-16.57 0-30-13.43-30-30V112c0-16.57 13.43-30 30-30s30 13.43 30 30v48.84c0 16.57-13.43 30-30 30zM912 814.83H112c-16.57 0-30-13.44-30-30s13.43-30 30-30h800c16.56 0 30 13.44 30 30s-13.44 30-30 30z" p-id="8163" fill="#6B6B6B"></path><path d="M512 942c-89.49 0-167.71-63.52-185.97-151.04-1.85-8.85 0.39-18.05 6.08-25.06a29.996 29.996 0 0 1 23.28-11.07h313.2c9.02 0 17.58 4.06 23.28 11.07s7.93 16.21 6.09 25.06C679.7 878.48 601.49 942 512 942zM398.22 814.83C420.67 855.26 463.96 882 512 882c48.05 0 91.33-26.74 113.79-67.17H398.22z" p-id="8164" fill="#6B6B6B"></path></svg>