<svg t="1692942663831" class="icon" viewBox="0 0 1024 1024" version="1.1" xmlns="http://www.w3.org/2000/svg" p-id="11690" width="200" height="200"><path d="M512 1255.489906" p-id="11691" fill="#6B6B6B"></path><path d="M499.719368 505.040975c48.099141-31.417949 79.926444-85.759744 79.926444-147.469918 0-97.01699-79.005397-176.022387-176.022387-176.022387-97.01699 0-176.022387 79.005397-176.022387 176.022387 0 61.607835 31.827304 115.94963 79.926444 147.469918-44.312612 14.736758-84.941035 39.605037-118.91745 73.581451-57.411953 57.411953-89.034579 133.756546-89.034579 214.911053 0 12.485309 10.029182 22.514491 22.514491 22.514491s22.514491-10.029182 22.514491-22.514491c0-142.762343 116.154307-258.91665 258.91665-258.91665s258.91665 116.154307 258.91665 258.91665c0 12.485309 10.029182 22.514491 22.514491 22.514491s22.514491-10.029182 22.514491-22.514491c0-81.154507-31.622626-157.499101-89.034579-214.911053C584.660404 544.748351 544.031981 519.777733 499.719368 505.040975zM272.630022 357.673396c0-72.251049 58.742355-130.993404 130.993404-130.993404 72.251049 0 130.993404 58.742355 130.993404 130.993404s-58.742355 130.993404-130.993404 130.993404C331.474715 488.6668 272.630022 429.924445 272.630022 357.673396z" p-id="11692" fill="#6B6B6B"></path><path d="M828.942634 593.563862c-34.692784-51.06696-84.019988-90.160304-141.227264-112.367779 25.379972-37.762942 38.888667-82.280232 38.479312-128.230262-0.409354-55.876874-21.286428-109.39996-58.640016-150.744753-8.391765-9.210474-22.61683-9.926844-31.827304-1.535079-9.210474 8.391765-9.926844 22.61683-1.535079 31.827304 62.528883 68.976214 62.938237 173.56626 0.921047 243.258845-1.43274 1.637418-2.660804 3.479512-3.479512 5.321607-1.125725 1.739756-1.944433 3.684189-2.558465 5.8333-3.274835 11.973616 3.888867 24.356586 15.862483 27.631421C768.665201 547.71617 848.591645 664.177494 835.185289 791.282031c-1.330402 12.38297 7.675395 23.435539 20.058365 24.76594 0.818709 0.102339 1.637418 0.102339 2.353788 0.102339 11.359584 0 21.18409-8.596442 22.412153-20.160704C887.480312 724.864281 869.36638 652.920248 828.942634 593.563862z" p-id="11693" fill="#6B6B6B"></path></svg>