<svg t="1692945482259" class="icon" viewBox="0 0 1024 1024" version="1.1" xmlns="http://www.w3.org/2000/svg" p-id="2927" width="200" height="200"><path d="M503.466667 870.4l-196.266667-196.266667-4.266667-4.266666-4.266666-4.266667c-51.2-55.466667-85.333333-132.266667-85.333334-217.6C213.333333 273.066667 358.4 128 533.333333 128S853.333333 273.066667 853.333333 448c0 85.333333-34.133333 162.133333-85.333333 217.6l-204.8 204.8-29.866667 29.866667-29.866666-29.866667z m29.866666-29.866667l196.266667-196.266666c51.2-51.2 81.066667-119.466667 81.066667-196.266667C810.666667 294.4 686.933333 170.666667 533.333333 170.666667S256 294.4 256 448c0 76.8 29.866667 145.066667 76.8 192l200.533333 200.533333z m0-243.2C452.266667 597.333333 384 529.066667 384 448S452.266667 298.666667 533.333333 298.666667 682.666667 366.933333 682.666667 448 614.4 597.333333 533.333333 597.333333z m0-42.666666c59.733333 0 106.666667-46.933333 106.666667-106.666667S593.066667 341.333333 533.333333 341.333333 426.666667 388.266667 426.666667 448s46.933333 106.666667 106.666666 106.666667z" fill="#6B6B6B" p-id="2928"></path></svg>