<svg width="138" height="138" viewBox="0 0 138 138" fill="none" xmlns="http://www.w3.org/2000/svg">
<g id="Group 197">
<g id="Group 96">
<rect id="Rectangle 115" width="138" height="138" rx="48" fill="url(#paint0_linear_2967_12403)"/>
</g>
<g id="Subtract" filter="url(#filter0_d_2967_12403)">
<path fill-rule="evenodd" clip-rule="evenodd" d="M87.0571 100H50.9429C49.6857 100 48.6571 98.956 48.6571 97.68C48.6571 96.404 49.6857 95.36 50.9429 95.36H87.0571C88.3143 95.36 89.3429 96.404 89.3429 97.68C89.3429 98.956 88.3143 100 87.0571 100ZM96.4286 42H41.5714C39.0571 42 37 44.088 37 46.64V85.616C37 88.168 39.0571 90.256 41.5714 90.256H96.4286C98.9429 90.256 101 88.168 101 85.616V46.64C101 44.088 98.9429 42 96.4286 42ZM57 78V73.0007L71.7446 58.2561L76.7439 63.2554L61.9993 78H57ZM80.6101 57.5095C81.13 58.0294 81.13 58.8693 80.6101 59.3893L78.1704 61.8289L73.1711 56.8296L75.6107 54.3899C76.1307 53.87 76.9706 53.87 77.4905 54.3899L80.6101 57.5095Z" fill="white"/>
</g>
</g>
<defs>
<filter id="filter0_d_2967_12403" x="33" y="42" width="72" height="66" filterUnits="userSpaceOnUse" color-interpolation-filters="sRGB">
<feFlood flood-opacity="0" result="BackgroundImageFix"/>
<feColorMatrix in="SourceAlpha" type="matrix" values="0 0 0 0 0 0 0 0 0 0 0 0 0 0 0 0 0 0 127 0" result="hardAlpha"/>
<feOffset dy="4"/>
<feGaussianBlur stdDeviation="2"/>
<feComposite in2="hardAlpha" operator="out"/>
<feColorMatrix type="matrix" values="0 0 0 0 0.027451 0 0 0 0 0.772549 0 0 0 0 0.254902 0 0 0 0.25 0"/>
<feBlend mode="normal" in2="BackgroundImageFix" result="effect1_dropShadow_2967_12403"/>
<feBlend mode="normal" in="SourceGraphic" in2="effect1_dropShadow_2967_12403" result="shape"/>
</filter>
<linearGradient id="paint0_linear_2967_12403" x1="69" y1="0" x2="69" y2="278.5" gradientUnits="userSpaceOnUse">
<stop stop-color="#00A62F"/>
<stop offset="1" stop-color="#D2E4FF" stop-opacity="0"/>
<stop offset="1" stop-color="#7EFFA3"/>
</linearGradient>
</defs>
</svg>
