<svg width="138" height="138" viewBox="0 0 138 138" fill="none" xmlns="http://www.w3.org/2000/svg">
<g id="Group 272">
<g id="Group 96">
<rect id="Rectangle 115" width="138" height="138" rx="48" fill="url(#paint0_linear_2967_12393)"/>
</g>
<g id="Vector">
<path d="M99.9385 55.7297L83.2678 39.0582C80.5237 36.3139 76.0717 36.3139 73.3275 39.0582C70.5834 41.8025 70.5834 46.2547 73.3275 48.999L75.1091 50.7807L68.5689 57.3251C59.2419 51.6308 46.9029 52.8147 38.8373 60.8806L36.0039 63.7142L52.4184 80.1295L45.6647 86.8836C43.8831 88.6652 43.8831 91.557 45.6647 93.3387C47.4463 95.1203 50.3379 95.1203 52.1195 93.3387L58.8732 86.5847L75.2876 103L78.1211 100.166C86.1866 92.1004 87.3705 79.7569 81.6764 70.4333L88.2205 63.8889L90.0021 65.6705C92.7462 68.4148 97.1982 68.4148 99.9424 65.6705C102.687 62.9262 102.687 58.474 99.9385 55.7297ZM65.4638 65.7598C65.1778 66.1869 64.7908 66.5369 64.3372 66.7786C63.8835 67.0203 63.3773 67.1464 62.8632 67.1456C62.2655 67.1456 61.6561 66.9748 61.1205 66.6138C56.882 63.7647 51.8517 66.0005 51.8012 66.0238C50.237 66.7613 48.3739 66.0898 47.6404 64.5255C47.465 64.154 47.3646 63.7515 47.345 63.3411C47.3254 62.9308 47.3869 62.5206 47.5261 62.134C47.6653 61.7475 47.8794 61.3922 48.156 61.0886C48.4327 60.7849 48.7666 60.5388 49.1386 60.3644C49.4724 60.2091 57.3905 56.5721 64.6099 61.4202C66.0421 62.3828 66.4264 64.3275 65.4638 65.7598Z" fill="white"/>
<path d="M73.3275 39.0582C70.5834 41.8025 70.5834 46.2547 73.3275 48.999L75.1091 50.7807L68.5689 57.3251C59.2419 51.6308 46.9029 52.8147 38.8373 60.8806L36.0039 63.7142L52.4184 80.1295L45.6647 86.8836C43.8831 88.6652 43.8831 91.557 45.6647 93.3387C47.4463 95.1203 50.3379 95.1203 52.1195 93.3387L58.8732 86.5847L66.896 94.608C74.4182 91.3901 80.7022 85.8472 84.8514 78.8797C84.3321 75.89 83.255 73.0247 81.6764 70.4333L88.2205 63.8889L89.7498 65.4182C90.0758 63.3998 90.2544 61.3348 90.2544 59.2271C90.2544 53.0049 88.7678 47.132 86.1439 41.9306L83.2717 39.0582C80.5237 36.3139 76.0717 36.3139 73.3275 39.0582ZM65.4638 65.7598C65.1778 66.1869 64.7908 66.5369 64.3372 66.7786C63.8835 67.0203 63.3773 67.1464 62.8632 67.1456C62.2655 67.1456 61.6561 66.9748 61.1205 66.6138C56.882 63.7647 51.8517 66.0005 51.8012 66.0238C50.237 66.7613 48.3739 66.0898 47.6404 64.5255C47.465 64.154 47.3646 63.7515 47.345 63.3411C47.3254 62.9308 47.3869 62.5206 47.5261 62.134C47.6653 61.7475 47.8794 61.3922 48.156 61.0886C48.4327 60.7849 48.7666 60.5388 49.1386 60.3644C49.4724 60.2091 57.3905 56.5721 64.6099 61.4202C66.0421 62.3828 66.4264 64.3275 65.4638 65.7598Z" fill="white"/>
<path d="M49.3792 83.165C66.7253 79.4386 79.728 64.0247 79.728 45.5677C79.728 42.6293 79.3864 39.7724 78.7654 37.0243C76.813 36.8962 74.818 37.5677 73.3275 39.0621C70.5834 41.8064 70.5834 46.2586 73.3275 49.0029L75.1091 50.7846L68.5689 57.3251C59.2419 51.6308 46.9029 52.8147 38.8373 60.8806L36.0039 63.7142L52.4184 80.1295L49.3792 83.165ZM51.8051 66.0199C50.2409 66.7574 48.3778 66.0859 47.6442 64.5216C47.4688 64.1501 47.3685 63.7476 47.3489 63.3373C47.3293 62.9269 47.3908 62.5167 47.53 62.1302C47.6692 61.7436 47.8832 61.3883 48.1599 61.0847C48.4366 60.781 48.7705 60.5349 49.1425 60.3605C49.4763 60.2052 57.3943 56.5682 64.6138 61.4163C66.046 62.3789 66.4303 64.3236 65.4677 65.7559C65.1817 66.1831 64.7947 66.533 64.3411 66.7747C63.8874 67.0165 63.3811 67.1425 62.8671 67.1417C62.2694 67.1417 61.66 66.9709 61.1244 66.6099C56.882 63.7647 51.8517 65.9966 51.8051 66.0199Z" fill="white"/>
<path d="M47.6404 64.5255C47.465 64.154 47.3646 63.7515 47.345 63.3411C47.3254 62.9308 47.3869 62.5206 47.5261 62.134C47.6653 61.7475 47.8794 61.3922 48.156 61.0886C48.4327 60.7849 48.7666 60.5388 49.1386 60.3644C49.3831 60.2479 53.6915 58.2761 58.8149 59.1262C60.1812 57.7559 61.4426 56.2809 62.5915 54.7205C54.4173 52.3993 45.2688 54.4488 38.8334 60.8845L36 63.7181L41.4301 69.1485C44.1898 68.4187 46.8253 67.3901 49.3055 66.0975C48.5741 65.799 47.9804 65.2385 47.6404 64.5255Z" fill="white"/>
</g>
</g>
<defs>
<linearGradient id="paint0_linear_2967_12393" x1="69" y1="0" x2="69" y2="244" gradientUnits="userSpaceOnUse">
<stop stop-color="#FF8A00"/>
<stop offset="0.432292" stop-color="#F0A855" stop-opacity="0.666667"/>
<stop offset="1" stop-color="#D2E4FF" stop-opacity="0"/>
<stop offset="1" stop-color="#FFDB7E"/>
</linearGradient>
</defs>
</svg>
