<svg width="138" height="138" viewBox="0 0 138 138" fill="none" xmlns="http://www.w3.org/2000/svg">
<g id="oa&#229;&#136;&#135;&#229;&#155;&#190;" clip-path="url(#clip0_150_6218)">
<g id="Group 100">
<rect id="Rectangle 114" width="138" height="138" rx="48" fill="url(#paint0_linear_150_6218)"/>
<g id="Vector" filter="url(#filter0_d_150_6218)">
<path id="Vector" d="M75.0178 73.2251C72.6899 72.0169 70.1096 71.3859 67.4911 71.3845C64.8112 72.0274 62.8392 72.3489 61.5752 72.3489C60.2887 72.3489 58.4375 72.0274 56.0216 71.3845C46.0101 71.3845 38 80.1975 38 90.9716V92.1496C38 96.6502 46.0097 96.6502 55.8406 96.6502H67.3098C69.6036 96.6502 71.7999 96.641 73.8199 96.5694C71.6519 93.3631 70.4962 89.5711 70.5044 85.6911C70.5044 80.9217 72.2041 76.5676 75.0177 73.2242L75.0178 73.2251ZM46.5715 53.4047C46.5715 45.0064 53.3927 38 61.5706 38C69.8555 38 76.5734 44.8952 76.5784 53.4047C76.6112 57.5022 75.041 61.4416 72.2204 64.339C69.3998 67.2365 65.5645 68.8508 61.5751 68.8186C53.2921 68.8131 46.5787 61.9169 46.576 53.4088L46.5715 53.4047ZM78.4353 84.2853L75.4128 81.9243C75.2811 81.8171 75.1915 81.6662 75.16 81.4985C75.1284 81.3309 75.157 81.1574 75.2406 81.009L78.1058 76.0583C78.1882 75.9075 78.3225 75.7923 78.4833 75.7343C78.6441 75.6764 78.8203 75.6797 78.9789 75.7437L82.5449 77.1747C83.2876 76.6163 84.0914 76.1299 84.9641 75.7726L85.5077 71.981C85.5336 71.8123 85.6194 71.6588 85.7491 71.549C85.8788 71.4392 86.0436 71.3806 86.213 71.384H91.938C92.1072 71.3818 92.2713 71.4415 92.4002 71.5519C92.529 71.6623 92.6138 71.8161 92.6388 71.9847L93.1856 75.7763C94.0492 76.1328 94.8614 76.6044 95.6006 77.1784L99.1712 75.7473C99.3303 75.6884 99.5049 75.6877 99.6645 75.7453C99.824 75.8028 99.9585 75.9151 100.044 76.0624L102.91 81.0127C102.993 81.1611 103.022 81.3347 102.99 81.5024C102.959 81.6701 102.869 81.8211 102.737 81.9284L99.7149 84.2894C99.8443 85.2195 99.8443 86.1631 99.7149 87.0932L102.733 89.4542C102.869 89.5582 102.962 89.7091 102.995 89.8781C103.027 90.047 102.997 90.2221 102.91 90.37L100.049 95.3211C99.9665 95.4719 99.8323 95.5872 99.6715 95.6451C99.5106 95.7031 99.3343 95.6998 99.1758 95.6357L95.6098 94.2052C94.8666 94.7631 94.0632 95.2495 93.1906 95.6073L92.6439 99.3988C92.6189 99.5666 92.5347 99.7197 92.4069 99.83C92.279 99.9404 92.1159 100.001 91.9476 99.9995H86.2135C86.0436 100.003 85.8784 99.9435 85.7487 99.833C85.6189 99.7225 85.5334 99.5682 85.5081 99.3989L84.9663 95.6073C84.1017 95.2503 83.2882 94.7788 82.5472 94.2052L78.9812 95.6357C78.8222 95.6949 78.6476 95.6958 78.4879 95.6383C78.3283 95.5808 78.1939 95.4685 78.1081 95.3211L75.2406 90.3668C75.157 90.2184 75.1284 90.0449 75.1599 89.8772C75.1915 89.7095 75.2811 89.5586 75.4128 89.4514L78.4307 87.0904C78.371 86.6255 78.3405 86.1572 78.3396 85.6883C78.3413 85.2195 78.3718 84.7512 78.4307 84.2862L78.4353 84.2853ZM89.0737 80.6797C86.311 80.6797 84.0587 82.9259 84.0587 85.6856C84.0587 88.4452 86.311 90.6914 89.0737 90.6914C91.8363 90.6914 94.0888 88.4457 94.0888 85.6856C94.0888 82.9254 91.8364 80.6797 89.0737 80.6797Z" fill="white"/>
</g>
</g>
</g>
<defs>

<filter id="filter0_d_150_6218" x="0" y="0" width="100" height="120" filterUnits="userSpaceOnUse" color-interpolation-filters="sRGB">
<!-- <feFlood flood-opacity="0" result="BackgroundImageFix"/> -->
<!-- <feColorMatrix in="SourceAlpha" type="matrix" values="0 0 0 0 0 0 0 0 0 0 0 0 0 0 0 0 0 0 127 0" result="hardAlpha"/>
<feOffset dy="4"/> -->
<!-- <feGaussianBlur stdDeviation="2"/> -->
<!-- <feComposite in2="hardAlpha" operator="out"/> -->
<!-- <feColorMatrix type="matrix" values="0 0 0 0 0.372549 0 0 0 0 0.6 0 0 0 0 0.941176 0 0 0 0.25 0"/> -->
<!-- <feBlend mode="normal" in2="BackgroundImageFix" result="effect1_dropShadow_150_6218"/> -->
<feBlend mode="normal" in="SourceGraphic" in2="effect1_dropShadow_150_6218" result="shape"/>
</filter>
<linearGradient id="paint0_linear_150_6218" x1="69" y1="0" x2="69" y2="278.5" gradientUnits="userSpaceOnUse">
<stop stop-color="#165FCD"/>
<stop offset="1" stop-color="#D2E4FF" stop-opacity="0"/>
<stop offset="1" stop-color="#7AA1E3"/>
</linearGradient>
<clipPath id="clip0_150_6218">
<rect width="3515" height="2171" fill="white" transform="translate(-1263 -357)"/>
</clipPath>
</defs>
</svg>
