<svg width="138" height="138" viewBox="0 0 138 138" fill="none" xmlns="http://www.w3.org/2000/svg">
<g id="Group 195">
<rect id="Rectangle 114" width="138" height="138" rx="48" fill="url(#paint0_linear_2295_12329)"/>
<path id="Vector" d="M51.5601 38H53.5C55.2811 37.9994 57.045 38.3496 58.6907 39.0308C60.3365 39.712 61.8319 40.7107 63.0916 41.9699C64.3513 43.2291 65.3505 44.7242 66.0323 46.3697C66.714 48.0152 67.0649 49.7789 67.0649 51.5601V67.0601H51.5649C49.7838 67.0607 48.02 66.7104 46.3742 66.0293C44.7285 65.3481 43.2331 64.3494 41.9734 63.0901C40.7137 61.8309 39.7144 60.3358 39.0327 58.6903C38.3509 57.0448 38 55.2811 38 53.5V51.5601C38 47.9637 39.4286 44.5147 41.9716 41.9716C44.5147 39.4286 47.9637 38 51.5601 38ZM51.5601 70.9351H67.0601V86.4351C67.0607 88.2161 66.7105 89.9797 66.0294 91.6254C65.3483 93.271 64.3498 94.7664 63.0907 96.026C61.8317 97.2857 60.3368 98.285 58.6915 98.9669C57.0462 99.6487 55.2826 99.9998 53.5016 100H51.5601C47.9637 100 44.5147 98.5714 41.9716 96.0284C39.4286 93.4853 38 90.0363 38 86.4399V84.5C37.9994 82.7189 38.3496 80.955 39.0308 79.3093C39.712 77.6635 40.7107 76.1681 41.9699 74.9084C43.2291 73.6487 44.7242 72.6495 46.3697 71.9677C48.0152 71.286 49.7789 70.9351 51.5601 70.9351ZM84.5 38H86.4399C90.0363 38 93.4853 39.4286 96.0284 41.9716C98.5714 44.5147 100 47.9637 100 51.5601V53.5C100.001 55.2811 99.6504 57.045 98.9692 58.6907C98.288 60.3365 97.2893 61.8319 96.0301 63.0916C94.7709 64.3513 93.2758 65.3505 91.6303 66.0323C89.9848 66.714 88.2211 67.065 86.4399 67.065H70.9399V51.5649C70.9393 49.7839 71.2895 48.0203 71.9706 46.3746C72.6517 44.729 73.6502 43.2336 74.9093 41.974C76.1683 40.7143 77.6632 39.715 79.3085 39.0331C80.9538 38.3513 82.7174 38.0002 84.4984 38H84.5ZM70.935 70.9351H86.4351C88.2166 70.9344 89.9808 71.2848 91.6269 71.9663C93.273 72.6478 94.7686 73.647 96.0284 74.9067C97.2881 76.1665 98.2873 77.6621 98.9687 79.3082C99.6502 80.9542 100.001 82.7184 100 84.5V86.4399C100 90.0363 98.5714 93.4853 96.0284 96.0284C93.4853 98.5714 90.0363 100 86.4399 100H84.5C82.7189 100.001 80.955 99.6504 79.3093 98.9692C77.6635 98.288 76.1681 97.2893 74.9084 96.0301C73.6487 94.7709 72.6495 93.2758 71.9677 91.6303C71.286 89.9848 70.935 88.2211 70.935 86.4399V70.9351Z" fill="white"/>
</g>
<defs>
<linearGradient id="paint0_linear_2295_12329" x1="69" y1="0" x2="69" y2="278.5" gradientUnits="userSpaceOnUse">
<stop stop-color="#165FCD"/>
<stop offset="1" stop-color="#D2E4FF" stop-opacity="0"/>
<stop offset="1" stop-color="#7AA1E3"/>
</linearGradient>
</defs>
</svg>
