<svg width="56" height="56" viewBox="0 0 56 56" fill="none" xmlns="http://www.w3.org/2000/svg">
<g id="oa&#229;&#136;&#135;&#229;&#155;&#190;">
<g id="Vector">
<path d="M0 6C0 2.68629 2.68629 0 6 0H50C53.3137 0 56 2.68629 56 6V50C56 53.3137 53.3137 56 50 56H6C2.68629 56 0 53.3137 0 50V6Z" fill="#D2E4FF"/>
<path d="M39.027 12.5214C32.933 6.42733 22.9934 6.42733 16.8937 12.5214C10.7996 18.6834 11.5246 27.1675 16.9616 34.785C22.3987 42.4026 26.7653 47.7094 28.0283 47.7094C29.2913 47.7094 33.5956 42.6744 39.095 34.7907C44.5944 26.839 45.189 18.6834 39.027 12.5214ZM28.0283 35.6968C21.3566 35.6968 15.9195 30.2598 15.9195 23.5881C15.9195 16.9163 21.283 11.4793 27.9547 11.4793C34.6264 11.4793 40.0635 16.922 40.0635 23.5881C40.1371 30.2598 34.7 35.6968 28.0283 35.6968Z" fill="#1D76FF"/>
<path d="M35.1135 18.3549C34.5811 17.8225 33.6579 17.8225 33.1256 18.3549L26.3009 25.1795L22.8574 21.7361C22.3251 21.2037 21.4019 21.2037 20.8695 21.7361C20.3371 22.2684 20.3371 23.1916 20.8695 23.724L25.3098 28.1642C25.576 28.4304 25.9724 28.5607 26.3066 28.5607C26.6407 28.5607 27.0372 28.4304 27.3034 28.1642L35.1248 20.3428C35.7138 19.8104 35.7138 18.9496 35.1135 18.3549Z" fill="#1D76FF"/>
</g>
</g>
</svg>
