<svg width="56" height="56" viewBox="0 0 56 56" fill="none" xmlns="http://www.w3.org/2000/svg">
<g id="oa&#229;&#136;&#135;&#229;&#155;&#190;">
<g id="Vector">
<path d="M0 6C0 2.68629 2.68629 0 6 0H50C53.3137 0 56 2.68629 56 6V50C56 53.3137 53.3137 56 50 56H6C2.68629 56 0 53.3137 0 50V6Z" fill="#D2E4FF"/>
<path d="M41.7275 28C41.7275 29.7258 42.8833 31.1825 44.4667 31.6258C44.0392 33.5892 43.2633 35.4417 42.2025 37.0883C40.7617 36.2808 38.925 36.4867 37.7058 37.7058C36.4867 38.925 36.2808 40.7775 37.0883 42.2025C35.4417 43.2633 33.605 44.0392 31.6258 44.4667C31.1825 42.8833 29.7258 41.7275 28 41.7275C26.2742 41.7275 24.8175 42.8833 24.3742 44.4667C22.4108 44.0392 20.5583 43.2633 18.9117 42.2025C19.7192 40.7617 19.5133 38.925 18.2942 37.7058C17.075 36.4867 15.2225 36.2808 13.7975 37.0883C12.7367 35.4417 11.9608 33.605 11.5333 31.6258C13.1167 31.1825 14.2725 29.7258 14.2725 28C14.2725 26.2742 13.1167 24.8175 11.5333 24.3742C11.9608 22.4108 12.7367 20.5583 13.7975 18.9117C15.2383 19.7192 17.075 19.5133 18.2942 18.2942C19.5133 17.075 19.7192 15.2225 18.9117 13.7975C20.5583 12.7367 22.395 11.9608 24.3742 11.5333C24.8175 13.1167 26.2742 14.2725 28 14.2725C29.7258 14.2725 31.1825 13.1167 31.6258 11.5333C33.5892 11.9608 35.4417 12.7367 37.0883 13.7975C36.2808 15.2383 36.4867 17.075 37.7058 18.2942C38.925 19.5133 40.7775 19.7192 42.2025 18.9117C43.2633 20.5583 44.0392 22.395 44.4667 24.3742C42.8833 24.8175 41.7275 26.2742 41.7275 28ZM28 20.78C24.01 20.78 20.78 24.01 20.78 28C20.78 31.99 24.01 35.22 28 35.22C31.99 35.22 35.22 31.99 35.22 28C35.22 24.01 31.99 20.78 28 20.78Z" fill="#1D76FF"/>
</g>
</g>
</svg>
