<svg width="56" height="56" viewBox="0 0 56 56" fill="none" xmlns="http://www.w3.org/2000/svg">
<g id="oa&#229;&#136;&#135;&#229;&#155;&#190;">
<g id="Group 95">
<rect id="Rectangle 106" width="56" height="56" rx="6" fill="#E6F8EB"/>
<svg x='10' y='10' t="1698313948337" class="icon" viewBox="0 0 1071 1024" version="1.1" xmlns="http://www.w3.org/2000/svg" p-id="4741" width="32" height="32"><path d="M276.973127 707.165431H29.465226a29.465226 29.465226 0 0 0-29.465226 29.465226v247.507901a29.465226 29.465226 0 0 0 29.465226 29.465226h247.507901a29.465226 29.465226 0 0 0 29.465226-29.465226v-247.507901a29.465226 29.465226 0 0 0-29.465226-29.465226z" fill="#2bc557" p-id="4742"></path><path d="M654.128024 707.165431H553.946254V530.374073h330.010535v176.791358h47.144362V524.481028a41.251317 41.251317 0 0 0-41.251317-41.251317H553.946254V306.438353h100.18177a29.465226 29.465226 0 0 0 29.465226-29.465226V29.465226a29.465226 29.465226 0 0 0-29.465226-29.465226H406.620123a29.465226 29.465226 0 0 0-29.465227 29.465226v247.507901a29.465226 29.465226 0 0 0 29.465227 29.465226h100.181769v176.791358H170.898312a41.251317 41.251317 0 0 0-41.251316 41.251317v182.684403h47.144362V530.374073h330.010534v176.791358H406.620123a29.465226 29.465226 0 0 0-29.465227 29.465226v247.507901a29.465226 29.465226 0 0 0 29.465227 29.465226h247.507901a29.465226 29.465226 0 0 0 29.465226-29.465226v-247.507901a29.465226 29.465226 0 0 0-29.465226-29.465226z" fill="#2bc557" p-id="4743"></path><path d="M754.309793 707.165431m29.465226 0l247.507901 0q29.465226 0 29.465226 29.465226l0 247.507901q0 29.465226-29.465226 29.465226l-247.507901 0q-29.465226 0-29.465226-29.465226l0-247.507901q0-29.465226 29.465226-29.465226Z" fill="#2bc557" p-id="4744"></path></svg>
</g>
</g>
</svg>
