<svg width="56" height="56" viewBox="0 0 56 56" fill="none" xmlns="http://www.w3.org/2000/svg">
<g id="oa&#229;&#136;&#135;&#229;&#155;&#190;">
<g id="Vector">
<path d="M0 6C0 2.68629 2.68629 0 6 0H50C53.3137 0 56 2.68629 56 6V50C56 53.3137 53.3137 56 50 56H6C2.68629 56 0 53.3137 0 50V6Z" fill="#FFF5E8"/>
<path d="M14.6596 37.7256H18.9869C20.2147 37.7256 21.2122 36.8706 21.2122 35.8209V27.7554C21.2122 26.7056 20.2147 25.8506 18.9869 25.8506H14.6596C13.4318 25.8506 12.4319 26.7056 12.4319 27.7554V35.8185C12.4319 36.873 13.4294 37.7256 14.6596 37.7256ZM25.8364 37.7256H30.1636C31.3915 37.7256 32.389 36.8302 32.389 35.7282V20.7254C32.389 19.6234 31.3915 18.7256 30.1636 18.7256H25.8364C24.6085 18.7256 23.611 19.6234 23.611 20.7254V35.7282C23.611 36.8302 24.6085 37.7256 25.8364 37.7256ZM36.9062 37.7256H41.2335C42.4614 37.7256 43.4589 36.8089 43.4589 35.6831V13.6431C43.4589 12.515 42.4614 11.6006 41.2335 11.6006H36.9062C35.6784 11.6006 34.6785 12.515 34.6785 13.6431V35.6784C34.6785 36.8065 35.676 37.7232 36.9062 37.7232V37.7256ZM42.9079 39.6494H13.0921C12.477 39.6494 11.9806 40.7086 11.9806 42.0244C11.9806 43.3377 12.4794 44.3994 13.0921 44.3994H42.9102C43.5277 44.3994 44.0241 43.3377 44.0241 42.0244C44.0241 40.7086 43.523 39.6494 42.9079 39.6494Z" fill="#FFA438"/>
</g>
</g>
</svg>
