<svg width="56" height="56" viewBox="0 0 56 56" fill="none" xmlns="http://www.w3.org/2000/svg">
<g id="oa&#229;&#136;&#135;&#229;&#155;&#190;">
<g id="Group 95">
<rect id="Rectangle 106" width="56" height="56" rx="6" fill="#E6F8EB"/>
<path id="Vector" d="M21.0056 17.1911C21.4564 17.1911 21.8895 17.28 22.3048 17.4578C22.7201 17.6356 23.076 17.8726 23.3726 18.1689C23.6693 18.4652 23.9066 18.8148 24.0845 19.2178C24.2625 19.6207 24.3515 20.0474 24.3515 20.4978C24.3515 21.4222 24.0252 22.2044 23.3726 22.8444C22.7201 23.4844 21.931 23.8044 21.0056 23.8044C20.5547 23.8044 20.1275 23.7215 19.7241 23.5556C19.3207 23.3896 18.9707 23.1526 18.6741 22.8444C18.3775 22.5363 18.1402 22.1867 17.9622 21.7956C17.7842 21.4044 17.6952 20.9719 17.6952 20.4978C17.6952 20.0474 17.7842 19.6207 17.9622 19.2178C18.1402 18.8148 18.3775 18.4652 18.6741 18.1689C18.9707 17.8726 19.3207 17.6356 19.7241 17.4578C20.1275 17.28 20.5547 17.1911 21.0056 17.1911ZM40.6541 12C41.8643 12 42.7245 12.3378 43.2347 13.0133C43.7449 13.6889 44 14.5719 44 15.6622V41.1911C44 41.523 43.9229 41.8607 43.7686 42.2044C43.6144 42.5481 43.4008 42.8504 43.1279 43.1111C42.855 43.3718 42.5406 43.5852 42.1846 43.7511C41.8287 43.917 41.4372 44 41.01 44H14.7764C14.0408 44 13.3941 43.7037 12.8365 43.1111C12.2788 42.5185 12 41.8074 12 40.9778V14.9511C12 14.0978 12.2373 13.3926 12.7119 12.8356C13.1865 12.2785 13.8154 12 14.5984 12H40.6541ZM40.7964 16.16C40.7964 15.8993 40.6956 15.6681 40.4939 15.4667C40.2922 15.2652 40.0489 15.1644 39.7642 15.1644H16.2002C15.9155 15.1644 15.6782 15.2652 15.4883 15.4667C15.2985 15.6681 15.2036 15.8993 15.2036 16.16V16.1956V28.9244C15.4409 29.2089 15.7553 29.5348 16.1468 29.9022C16.5384 30.2696 17.0011 30.6133 17.535 30.9333C18.069 31.2533 18.6741 31.5259 19.3504 31.7511C20.0267 31.9763 20.7801 32.0889 21.6107 32.0889C22.8921 32.0889 24.0193 31.8815 24.9922 31.4667C25.9651 31.0519 26.8847 30.5422 27.7508 29.9378C28.617 29.3333 29.4653 28.6696 30.2959 27.9467C31.1264 27.2237 32.0341 26.5481 33.0189 25.92C34.0037 25.2919 35.125 24.7585 36.3826 24.32C37.6403 23.8815 39.1116 23.6267 40.7964 23.5556V16.16Z" fill="#2BC557"/>
</g>
</g>
</svg>
