<svg width="56" height="56" viewBox="0 0 56 56" fill="none" xmlns="http://www.w3.org/2000/svg">
<g id="oa&#229;&#136;&#135;&#229;&#155;&#190;" clip-path="url(#clip0_1867_15603)">
<g id="Group 151">
<rect id="Rectangle 106" width="56" height="56" rx="6" fill="#E6F8EB"/>
<g id="Group 152">
<path id="Vector" d="M42.6991 14.418H40.0462V10.7118C40.0462 10.523 39.9683 10.342 39.8296 10.2085C39.6908 10.075 39.5027 10 39.3065 10H34.4727C34.2765 10 34.0884 10.075 33.9496 10.2085C33.8109 10.342 33.733 10.523 33.733 10.7118V14.418H22.7134V10.7118C22.7134 10.523 22.6355 10.342 22.4968 10.2085C22.358 10.075 22.1699 10 21.9737 10H17.1399C16.9437 10 16.7556 10.075 16.6168 10.2085C16.4781 10.342 16.4002 10.523 16.4002 10.7118V14.418H13.3009C12.5867 14.418 12 14.9825 12 15.682V43.7482C12 44.4478 12.5867 45 13.3009 45H42.6991C43.4261 45 44 44.4478 44 43.7482V15.682C44 14.9825 43.4261 14.418 42.6991 14.418ZM41.3982 42.4965H14.6018V23.2661H41.3982V42.4965Z" fill="#2BC557"/>
<g id="Subtract">
<mask id="path-3-outside-1_1867_15603" maskUnits="userSpaceOnUse" x="20" y="26.9492" width="16" height="11" fill="black">
<rect fill="white" x="20" y="26.9492" width="16" height="11"/>
<path d="M21.0972 32.6446L21.3442 32.3341C21.3786 32.2902 21.4221 32.2532 21.4722 32.2252C21.5223 32.1972 21.578 32.1787 21.6359 32.1711C21.6938 32.1634 21.7528 32.1665 21.8094 32.1803C21.8659 32.1942 21.9189 32.2184 21.9652 32.2516L24.7223 34.2109C24.9279 34.3471 25.1753 34.4182 25.428 34.4136C25.6806 34.409 25.9249 34.3291 26.1246 34.1856L34.0657 28.0523C34.1609 27.9813 34.2808 27.9448 34.403 27.9496C34.5251 27.9545 34.6411 28.0004 34.7295 28.0788L34.8684 28.2053C34.9102 28.2434 34.9433 28.2889 34.9659 28.339C34.9885 28.3891 35.0001 28.4429 35 28.4973C34.9999 28.5516 34.9881 28.6054 34.9653 28.6554C34.9425 28.7054 34.9091 28.7508 34.8672 28.7887L26.0747 36.8108C25.9912 36.8876 25.8921 36.9482 25.7831 36.9892C25.6741 37.0301 25.5574 37.0505 25.4398 37.0492C25.3222 37.0478 25.206 37.0248 25.0981 36.9814C24.9902 36.938 24.8927 36.8752 24.8113 36.7965L21.1447 33.2786C21.0605 33.1935 21.0099 33.0844 21.0013 32.9693C20.9927 32.8541 21.0265 32.7396 21.0972 32.6446Z"/>
</mask>
<path d="M21.0972 32.6446L21.3442 32.3341C21.3786 32.2902 21.4221 32.2532 21.4722 32.2252C21.5223 32.1972 21.578 32.1787 21.6359 32.1711C21.6938 32.1634 21.7528 32.1665 21.8094 32.1803C21.8659 32.1942 21.9189 32.2184 21.9652 32.2516L24.7223 34.2109C24.9279 34.3471 25.1753 34.4182 25.428 34.4136C25.6806 34.409 25.9249 34.3291 26.1246 34.1856L34.0657 28.0523C34.1609 27.9813 34.2808 27.9448 34.403 27.9496C34.5251 27.9545 34.6411 28.0004 34.7295 28.0788L34.8684 28.2053C34.9102 28.2434 34.9433 28.2889 34.9659 28.339C34.9885 28.3891 35.0001 28.4429 35 28.4973C34.9999 28.5516 34.9881 28.6054 34.9653 28.6554C34.9425 28.7054 34.9091 28.7508 34.8672 28.7887L26.0747 36.8108C25.9912 36.8876 25.8921 36.9482 25.7831 36.9892C25.6741 37.0301 25.5574 37.0505 25.4398 37.0492C25.3222 37.0478 25.206 37.0248 25.0981 36.9814C24.9902 36.938 24.8927 36.8752 24.8113 36.7965L21.1447 33.2786C21.0605 33.1935 21.0099 33.0844 21.0013 32.9693C20.9927 32.8541 21.0265 32.7396 21.0972 32.6446Z" fill="#2BC557"/>
<path d="M21.0972 32.6446L20.706 32.3332L20.701 32.3396L20.6961 32.346L21.0972 32.6446ZM21.3442 32.3341L21.7355 32.6455L21.738 32.6423L21.3442 32.3341ZM21.9652 32.2516L21.6739 32.658L21.6756 32.6592L21.9652 32.2516ZM24.7223 34.2109L24.4327 34.6184L24.4393 34.6232L24.4461 34.6277L24.7223 34.2109ZM26.1246 34.1856L26.4164 34.5916L26.4234 34.5866L26.4302 34.5813L26.1246 34.1856ZM34.0657 28.0523L33.7667 27.6515L33.7601 27.6566L34.0657 28.0523ZM34.7295 28.0788L35.0662 27.7091L35.0613 27.7047L34.7295 28.0788ZM34.8684 28.2053L35.2052 27.8359L35.2051 27.8358L34.8684 28.2053ZM34.8672 28.7887L34.5317 28.418L34.5302 28.4194L34.8672 28.7887ZM26.0747 36.8108L25.7377 36.4414L25.7361 36.4429L26.0747 36.8108ZM24.8113 36.7965L25.1588 36.437L25.1575 36.4357L24.8113 36.7965ZM21.1447 33.2786L20.7893 33.6305L20.7986 33.6394L21.1447 33.2786ZM21.4885 32.9559L21.7355 32.6455L20.953 32.0228L20.706 32.3332L21.4885 32.9559ZM21.738 32.6423C21.7302 32.6522 21.7223 32.6582 21.7162 32.6616L21.2281 31.7888C21.1219 31.8482 21.0269 31.9283 20.9505 32.026L21.738 32.6423ZM21.7162 32.6616C21.7102 32.6649 21.7053 32.6662 21.7018 32.6667L21.57 31.6754C21.4506 31.6913 21.3344 31.7294 21.2281 31.7888L21.7162 32.6616ZM21.7018 32.6667C21.6982 32.6672 21.6946 32.667 21.6906 32.666L21.9281 31.6947C21.811 31.666 21.6893 31.6595 21.57 31.6754L21.7018 32.6667ZM21.6906 32.666C21.6865 32.665 21.6807 32.6628 21.6739 32.6579L22.2565 31.8452C22.1571 31.774 22.0453 31.7233 21.9281 31.6947L21.6906 32.666ZM21.6756 32.6592L24.4327 34.6184L25.0119 33.8033L22.2548 31.844L21.6756 32.6592ZM24.4461 34.6277C24.7383 34.8213 25.0857 34.9199 25.437 34.9135L25.4189 33.9137C25.2649 33.9165 25.1174 33.8729 24.9984 33.7941L24.4461 34.6277ZM25.437 34.9135C25.7882 34.9072 26.1318 34.7961 26.4164 34.5916L25.8328 33.7795C25.718 33.862 25.5729 33.9109 25.4189 33.9137L25.437 34.9135ZM26.4302 34.5813L34.3713 28.4481L33.7601 27.6566L25.8189 33.7898L26.4302 34.5813ZM34.3647 28.4531C34.3647 28.4531 34.3663 28.4519 34.3699 28.4508C34.3735 28.4497 34.3781 28.4491 34.3831 28.4493L34.4228 27.45C34.1898 27.4408 33.9566 27.5099 33.7667 27.6516L34.3647 28.4531ZM34.3831 28.4493C34.3881 28.4495 34.3922 28.4505 34.395 28.4516C34.3979 28.4527 34.3985 28.4536 34.3976 28.4528L35.0613 27.7047C34.8834 27.5469 34.6559 27.4593 34.4228 27.45L34.3831 28.4493ZM34.3927 28.4483L34.5316 28.5749L35.2051 27.8358L35.0662 27.7092L34.3927 28.4483ZM34.5315 28.5748C34.5243 28.5683 34.5164 28.5584 34.5101 28.5445L35.4217 28.1335C35.3703 28.0194 35.296 27.9186 35.2052 27.8359L34.5315 28.5748ZM34.5101 28.5445C34.5038 28.5306 34.5 28.514 34.5 28.4962L35.5 28.4983C35.5003 28.3719 35.4732 28.2477 35.4217 28.1335L34.5101 28.5445ZM34.5 28.4962C34.5 28.4785 34.504 28.462 34.5103 28.4481L35.4203 28.8627C35.4722 28.7487 35.4997 28.6247 35.5 28.4983L34.5 28.4962ZM34.5103 28.4481C34.5166 28.4343 34.5246 28.4244 34.5317 28.418L35.2027 29.1595C35.2937 29.0771 35.3684 28.9766 35.4203 28.8627L34.5103 28.4481ZM34.5302 28.4194L25.7377 36.4414L26.4117 37.1802L35.2042 29.1581L34.5302 28.4194ZM25.7361 36.4429C25.7012 36.475 25.6578 36.5021 25.6074 36.5211L25.9588 37.4573C26.1265 37.3943 26.2813 37.3002 26.4133 37.1787L25.7361 36.4429ZM25.6074 36.5211C25.5569 36.54 25.5018 36.5498 25.4454 36.5492L25.4341 37.5491C25.613 37.5512 25.7913 37.5202 25.9588 37.4573L25.6074 36.5211ZM25.4454 36.5492C25.3891 36.5486 25.3344 36.5375 25.2847 36.5175L24.9116 37.4453C25.0777 37.5121 25.2552 37.5471 25.4341 37.5491L25.4454 36.5492ZM25.2847 36.5175C25.235 36.4975 25.1926 36.4696 25.1588 36.437L24.4639 37.156C24.5929 37.2808 24.7455 37.3785 24.9116 37.4453L25.2847 36.5175ZM25.1575 36.4357L21.4909 32.9178L20.7986 33.6394L24.4652 37.1573L25.1575 36.4357ZM21.5 32.9268C21.498 32.9247 21.4978 32.9238 21.4983 32.9249C21.4988 32.926 21.4997 32.9284 21.4999 32.9319L20.5027 33.0066C20.5206 33.2449 20.6249 33.4642 20.7894 33.6304L21.5 32.9268ZM21.4999 32.9319C21.5002 32.9354 21.4997 32.9386 21.499 32.941C21.4983 32.9434 21.4977 32.944 21.4984 32.9431L20.6961 32.346C20.5556 32.5349 20.4848 32.7681 20.5027 33.0066L21.4999 32.9319Z" fill="#2BC557" mask="url(#path-3-outside-1_1867_15603)"/>
</g>
</g>
</g>
</g>
<defs>
<clipPath id="clip0_1867_15603">
<rect width="3515" height="2171" fill="white" transform="translate(-1751 -120)"/>
</clipPath>
</defs>
</svg>
