<svg width="56" height="56" viewBox="0 0 56 56" fill="none" xmlns="http://www.w3.org/2000/svg">
<g id="oa&#229;&#136;&#135;&#229;&#155;&#190;" clip-path="url(#clip0_150_6218)">
<g id="Group 94">
<rect id="Rectangle 104" width="56" height="56" rx="6" fill="#D2E4FF"/>
<path id="Vector" d="M39.134 31.7078C39.711 31.9858 40 32.4578 40 33.1248V39.4577C40 39.8747 39.87 40.2357 39.61 40.5417C39.4897 40.6887 39.3375 40.8063 39.1649 40.8857C38.9923 40.965 38.8039 41.004 38.614 40.9997H17.343C16.967 40.9997 16.65 40.8467 16.39 40.5417C16.1315 40.2404 15.9927 39.8546 16 39.4577V33.1248C16 32.4578 16.289 31.9858 16.866 31.7078L25.184 27.9998C24.087 27.3608 23.249 26.4439 22.671 25.2499C22.1258 24.2087 21.8433 23.0501 21.848 21.8749C21.848 21.5139 21.878 21.1669 21.935 20.8329C22.0684 20.0512 22.3003 19.2895 22.625 18.566C22.555 18.458 23.285 17.292 24.339 16.375C25.393 15.458 26.614 15 28 15C29.415 15 30.657 15.472 31.726 16.417C32.794 17.361 33.516 18.556 33.892 19.9999C34.0277 20.616 34.1004 21.2442 34.109 21.8749C34.109 22.9859 33.877 24.0549 33.415 25.0829C32.838 26.3329 32 27.2778 30.903 27.9168L33.373 29.0418L39.133 31.7078H39.134ZM16.14 29.8648C15.457 30.1298 14.923 30.5328 14.535 31.0748C14.1529 31.5991 13.9489 32.232 13.953 32.8808V37.9997H9.163C8.822 37.9997 8.543 37.8877 8.326 37.6627C8.108 37.4377 8 37.1527 8 36.8097V31.9678C8 31.3858 8.248 31.0158 8.744 30.8578L15.954 27.9998C15.095 27.559 14.3714 26.8938 13.86 26.0749C13.333 25.2419 13.07 24.3089 13.07 23.2779C13.07 22.5639 13.21 21.8819 13.488 21.2339C13.768 20.5859 14.148 20.0239 14.628 19.5479C15.1109 19.0702 15.6786 18.6867 16.302 18.417C16.9555 18.1354 17.6605 17.9934 18.372 18C18.868 18 19.333 18.066 19.767 18.198C20.202 18.331 20.62 18.503 21.023 18.714C20.5038 19.7911 20.2338 20.9712 20.233 22.1669C20.233 23.0929 20.388 23.9849 20.698 24.8449C21.008 25.7049 21.442 26.4789 22 27.1668C21.6815 27.4684 21.3211 27.7224 20.93 27.9208L16.14 29.8648ZM47.26 30.8568C47.754 31.0688 48 31.4388 48 31.9678V36.8097C48 37.1537 47.892 37.4377 47.677 37.6627C47.461 37.8877 47.184 37.9997 46.845 37.9997H41.947V32.8808C41.9514 32.2328 41.7493 31.6002 41.37 31.0748C40.9818 30.5303 40.4441 30.11 39.822 29.8648L35.247 27.9998C34.7845 27.7653 34.3633 27.4569 34 27.0868C34.5254 26.3956 34.9385 25.6258 35.224 24.8059C35.5197 23.9573 35.6685 23.0645 35.664 22.1659C35.664 21.5579 35.602 20.9759 35.479 20.4209C35.3538 19.86 35.1677 19.3145 34.924 18.794C35.324 18.555 35.756 18.364 36.218 18.218C36.68 18.073 37.158 18 37.651 18C38.39 18 39.083 18.139 39.73 18.417C40.359 18.6826 40.9313 19.0662 41.416 19.5469C41.8986 20.031 42.2831 20.6038 42.548 21.2339C42.825 21.8819 42.964 22.5639 42.964 23.2779C42.9726 24.2535 42.7 25.211 42.179 26.0359C41.655 26.8689 40.993 27.5108 40.192 27.9598L47.261 30.8568H47.26Z" fill="#1D76FF"/>
</g>
</g>
<defs>
<clipPath id="clip0_150_6218">
<rect width="3515" height="1794" fill="white" transform="translate(-1660 -216)"/>
</clipPath>
</defs>
</svg>
