<svg width="56" height="56" viewBox="0 0 56 56" fill="none" xmlns="http://www.w3.org/2000/svg">
<g id="oa&#229;&#136;&#135;&#229;&#155;&#190;">
<g id="Vector">
<path d="M0 6C0 2.68629 2.68629 0 6 0H50C53.3137 0 56 2.68629 56 6V50C56 53.3137 53.3137 56 50 56H6C2.68629 56 0 53.3137 0 50V6Z" fill="#D2E4FF"/>
<path d="M42.625 32.8359C42.625 33.166 42.3574 33.4336 42.0273 33.4336H13.832C13.5019 33.4336 13.2344 33.166 13.2344 32.8359V30.5156C13.2344 30.1855 13.5019 29.918 13.832 29.918H42.0273C42.3574 29.918 42.625 30.1855 42.625 30.5156V32.8359ZM42.625 38.1094C42.625 38.4395 42.3574 38.707 42.0273 38.707H13.832C13.5019 38.707 13.2344 38.4395 13.2344 38.1094V35.7891C13.2344 35.459 13.5019 35.1914 13.832 35.1914H42.0273C42.3574 35.1914 42.625 35.459 42.625 35.7891V38.1094ZM42.0273 15.082H13.832C13.5019 15.082 13.2344 15.3496 13.2344 15.6797V27.5625C13.2344 27.8926 13.5019 28.1602 13.832 28.1602H42.0273C42.3574 28.1602 42.625 27.8926 42.625 27.5625V15.6797C42.625 15.3496 42.3574 15.082 42.0273 15.082ZM25.1875 20.8828C25.1875 21.2129 24.9199 21.4805 24.5898 21.4805H16.6445C16.3144 21.4805 16.0469 21.2129 16.0469 20.8828V18.5625C16.0469 18.2324 16.3144 17.9648 16.6445 17.9648H24.5898C24.9199 17.9648 25.1875 18.2324 25.1875 18.5625V20.8828Z" fill="#1D76FF"/>
</g>
</g>
</svg>
