<svg width="56" height="56" viewBox="0 0 56 56" fill="none" xmlns="http://www.w3.org/2000/svg">
<g id="oa&#229;&#136;&#135;&#229;&#155;&#190;">
<g id="Vector">
<path d="M0 6C0 2.68629 2.68629 0 6 0H50C53.3137 0 56 2.68629 56 6V50C56 53.3137 53.3137 56 50 56H6C2.68629 56 0 53.3137 0 50V6Z" fill="#FFF5E8"/>
<path d="M42.6147 13.3599C40.7104 11.4484 38.1918 10.2731 35.5049 10.0421C32.818 9.81106 30.1361 10.5393 27.934 12.0977C25.732 13.6562 24.152 15.9443 23.4738 18.557C22.7955 21.1697 23.0628 23.9384 24.2283 26.3727L10.7466 39.8675C10.51 40.1028 10.3223 40.3827 10.1941 40.6909C10.066 40.9992 10 41.3297 10 41.6636C10 41.9975 10.066 42.3281 10.1941 42.6363C10.3223 42.9446 10.51 43.2244 10.7466 43.4597L12.5763 45.2526C12.8114 45.4894 13.091 45.6774 13.3989 45.8057C13.7068 45.9339 14.0371 46 14.3706 46C14.7042 46 15.0344 45.9339 15.3424 45.8057C15.6503 45.6774 15.9299 45.4894 16.165 45.2526L21.5641 39.8097L22.2381 40.4844C22.7179 40.9535 23.3619 41.2161 24.0325 41.2161C24.7031 41.2161 25.3471 40.9535 25.8268 40.4844L27.6244 38.6851C28.093 38.2049 28.3553 37.5603 28.3553 36.889C28.3553 36.2178 28.093 35.5731 27.6244 35.0929L26.9631 34.431L29.6145 31.7771C32.0485 32.952 34.8199 33.2249 37.436 32.5474C40.0521 31.8698 42.3435 30.2857 43.9028 28.0767C45.4621 25.8676 46.1884 23.1766 45.9526 20.482C45.7167 17.7875 44.534 15.2639 42.6147 13.3599ZM37.3055 24.1493C36.7762 24.6974 36.0964 25.0762 35.3521 25.2377C34.6078 25.3992 33.8323 25.3362 33.1238 25.0567C32.4152 24.7772 31.8053 24.2937 31.3712 23.6674C30.937 23.041 30.6982 22.2999 30.6847 21.5376C30.6712 20.7754 30.8838 20.0263 31.2956 19.385C31.7073 18.7437 32.2998 18.2389 32.9981 17.9345C33.6963 17.6302 34.469 17.5398 35.2186 17.6749C35.9681 17.81 36.6608 18.1645 37.2092 18.6935C37.5737 19.0452 37.8654 19.4654 38.0675 19.9301C38.2697 20.3947 38.3784 20.8947 38.3873 21.4014C38.3962 21.9081 38.3053 22.4116 38.1197 22.8832C37.934 23.3547 37.6574 23.7849 37.3055 24.1493Z" fill="#FFA438"/>
</g>
</g>
</svg>
