<svg width="56" height="56" viewBox="0 0 56 56" fill="none" xmlns="http://www.w3.org/2000/svg">
<g id="oa&#229;&#136;&#135;&#229;&#155;&#190;">
<g id="Vector">
<path d="M0 6C0 2.68629 2.68629 0 6 0H50C53.3137 0 56 2.68629 56 6V50C56 53.3137 53.3137 56 50 56H6C2.68629 56 0 53.3137 0 50V6Z" fill="#D2E4FF"/>
 <svg t="1698313387830"  x='10' y='10' class="icon" viewBox="0 0 1029 1024" version="1.1" xmlns="http://www.w3.org/2000/svg" p-id="4072" width="32" height="32"><path d="M520.551424 319.488c0-9.0112-0.7168-17.152-2.2016-25.856A145.664 145.664 0 0 0 375.143424 174.08c-69.5808 0-128.2048 47.7696-142.8992 118.0672l-1.5872 10.9568a470.7328 470.7328 0 0 0-5.0176 68.096c0 263.936 214.7328 478.72 478.72 478.72 16.3328 0 32.1024-1.0752 43.5712-2.56 3.6352 0 7.2704-0.1024 10.9056-0.5632 6.7584-0.3072 13.2608-1.3824 21.0944-2.9696a146.5344 146.5344 0 0 0 113.408-141.8752c0-71.8336-51.2-132.1984-121.856-143.8208a131.2256 131.2256 0 0 0-23.552-2.1504c-50.2784 0-96.3584 25.8048-122.7264 67.2256A167.6288 167.6288 0 0 1 447.130624 445.952a145.9712 145.9712 0 0 0 73.4208-126.464z m93.696 380.928c14.592 0 28.8256-1.2288 42.1888-3.6352a38.5536 38.5536 0 0 0 28.416-22.5792c12.0832-28.0064 43.8272-45.824 72.6528-40.4992a68.5568 68.5568 0 0 1 58.9824 68.3008c0 31.7952-22.4768 60.0064-53.1456 66.9184-4.864 0.9216-8.2944 0.6144-13.5168 1.6896l-6.8096 0.256a348.7744 348.7744 0 0 1-38.7072 2.304c-221.5936 0-401.92-180.2752-401.92-401.92 0-19.0976 1.3824-38.1952 4.2496-57.1392l1.0752-8.1408a68.8128 68.8128 0 0 1 135.0144 1.0752 69.0688 69.0688 0 0 1-44.3392 77.2608 38.4 38.4 0 0 0-24.7296 29.44 244.48 244.48 0 0 0 240.5888 286.6688z" fill="#438CFF" p-id="4073"></path><path d="M879.924224 0h-665.6a140.9536 140.9536 0 0 0-140.8 140.8v89.7024a38.4 38.4 0 0 0 76.8 0V140.8c0-35.2768 28.7232-64 64-64h665.6c35.2768 0 64 28.7232 64 64v742.4c0 35.2768-28.7232 64-64 64h-665.6c-35.2768 0-64-28.7232-64-64v-89.3952a38.4 38.4 0 0 0-76.8 0v89.3952A140.9024 140.9024 0 0 0 214.324224 1024h665.6a140.9024 140.9024 0 0 0 140.8-140.8V140.8A141.0048 141.0048 0 0 0 879.924224 0z" fill="#438CFF" p-id="4074"></path><path d="M39.169024 411.4432h0.768l102.4-2.048a38.4512 38.4512 0 0 0 37.632-39.168c-0.512-21.1968-19.0976-39.7312-39.168-37.632l-102.4 2.048a38.4512 38.4512 0 0 0 0.768 76.8zM39.169024 551.424h0.768l102.4-2.048a38.4512 38.4512 0 0 0 37.632-39.168c-0.512-21.248-19.0976-36.1984-39.168-37.632l-102.4 2.048a38.4 38.4 0 0 0 0.768 76.8zM179.969024 650.1888c-0.512-21.1968-19.0976-36.9664-39.168-37.632l-102.4 2.048a38.4512 38.4512 0 0 0 0.768 76.8h0.768l102.4-2.048a38.4512 38.4512 0 0 0 37.632-39.168z" fill="#438CFF" p-id="4075"></path>
 </svg>
</g>
</g>

</svg>
