<svg width="56" height="56" viewBox="0 0 56 56" fill="none" xmlns="http://www.w3.org/2000/svg">
<g id="oa&#229;&#136;&#135;&#229;&#155;&#190;">
<g id="Vector">
<path d="M0 6C0 2.68629 2.68629 0 6 0H50C53.3137 0 56 2.68629 56 6V50C56 53.3137 53.3137 56 50 56H6C2.68629 56 0 53.3137 0 50V6Z" fill="#E6F8EB"/>
<path d="M14.4236 20.9291C14.4236 17.1945 17.5127 14.1673 21.3236 14.1673C25.1364 14.1673 28.2255 17.1945 28.2255 20.9291C28.2255 24.6636 25.1345 27.6909 21.3236 27.6909C17.5127 27.6909 14.4236 24.6636 14.4236 20.9291ZM23.9091 39.5764V39.1091C23.9091 35.6618 25.7055 32.6327 28.4145 30.8473C27.1907 30.2547 25.8488 29.9464 24.4891 29.9455H18.7364C13.8127 29.9455 9.82182 33.8545 9.82182 38.6782V39.2418C9.82182 41.2145 13.8127 41.2145 18.7364 41.2145H24.2364C24.0126 40.6978 23.901 40.1394 23.9091 39.5764ZM36.16 18.7618C32.9982 18.7618 30.4327 21.2745 30.4327 24.3745C30.4327 27.4745 32.9982 29.9873 36.16 29.9873C39.3236 29.9873 41.8873 27.4745 41.8873 24.3745C41.8873 21.2745 39.3255 18.7618 36.16 18.7618ZM36.16 18.7618C32.9982 18.7618 30.4327 21.2745 30.4327 24.3745C30.4327 27.4745 32.9982 29.9873 36.16 29.9873C39.3236 29.9873 41.8873 27.4745 41.8873 24.3745C41.8873 21.2745 39.3255 18.7618 36.16 18.7618ZM34.0145 31.86C29.9273 31.86 26.6145 35.1055 26.6145 39.1091V39.5764C26.6145 41.2127 29.9273 41.2127 34.0145 41.2127H38.7891C42.8745 41.2127 46.1855 41.1527 46.1855 39.5764V39.1091C46.1855 35.1055 42.8745 31.86 38.7891 31.86H34.0145Z" fill="#2BC557"/>
</g>
</g>
</svg>
