<svg width="56" height="56" viewBox="0 0 56 56" fill="none" xmlns="http://www.w3.org/2000/svg">
<g id="oa&#229;&#136;&#135;&#229;&#155;&#190;">
<g id="Vector">
<path d="M0 6C0 2.68629 2.68629 0 6 0H50C53.3137 0 56 2.68629 56 6V50C56 53.3137 53.3137 56 50 56H6C2.68629 56 0 53.3137 0 50V6Z" fill="#FFF5E8"/>
<path d="M38.1456 13C39.0091 13 39.7119 13.72 39.7119 14.6073V25.8442C38.6649 24.8673 37.2866 24.3237 35.8547 24.323C32.8119 24.323 30.3371 26.7359 30.1591 29.7486L30.1485 30.113L30.187 30.5308L30.2661 31.0215C30.3668 31.5038 30.5231 31.9645 30.7311 32.3992L30.9563 32.8258H30.2855L29.979 32.8386C28.1681 32.9884 26.737 34.4455 26.5846 36.2542L26.5718 36.5757V38.7143H26.5524L26.5502 43H14.5706C14.3636 42.9994 14.1587 42.9574 13.9681 42.8764C13.7775 42.7955 13.6049 42.6773 13.4607 42.5287C13.1653 42.2241 13 41.8164 13 41.392V14.6073C13 14.1788 13.163 13.7716 13.4607 13.4717C13.6049 13.323 13.7774 13.2048 13.968 13.1238C14.1587 13.0428 14.3635 13.0007 14.5706 13H38.1456ZM42.9993 40.8566V42.9993H28.6983V40.8566H42.9993ZM35.8572 26.4674C37.5458 26.4674 39.0073 27.6803 39.3523 29.3733C39.6994 31.0658 38.8359 32.5123 37.2865 33.2045V34.9721H41.4286C42.2965 34.9721 42.9993 35.6899 42.9993 36.5794V38.7136H28.7152V36.5728C28.7152 35.688 29.4179 34.9655 30.2858 34.9655H34.4279V33.2063C33.1971 32.6482 32.3754 31.4562 32.2915 30.1079C32.2871 28.1044 33.886 26.4649 35.8572 26.4649V26.4674ZM24.7855 21.5713H18.3568C17.802 21.5702 17.338 21.9932 17.2879 22.5458C17.2377 23.0984 17.6178 23.5979 18.1642 23.6968L18.3568 23.714H24.7851C25.1678 23.714 25.5215 23.51 25.7131 23.1782C25.8072 23.0153 25.8567 22.8306 25.8567 22.6425C25.8567 22.4544 25.8072 22.2696 25.7131 22.1067C25.6191 21.9438 25.4839 21.8086 25.3211 21.7146C25.1582 21.6206 24.9735 21.5712 24.7855 21.5713ZM29.0711 17.2857H18.3568C17.802 17.2846 17.338 17.7075 17.2879 18.2601C17.2377 18.8127 17.6178 19.3122 18.1642 19.4111L18.3568 19.4283H29.0708C29.2589 19.4284 29.4437 19.379 29.6066 19.2849C29.7695 19.1908 29.9048 19.0555 29.9987 18.8926C30.0928 18.7297 30.1424 18.5449 30.1424 18.3568C30.1424 18.1687 30.0928 17.9839 29.9987 17.821C29.9047 17.6582 29.7695 17.523 29.6067 17.429C29.4439 17.3351 29.2591 17.2856 29.0711 17.2857Z" fill="#FFA438"/>
</g>
</g>
</svg>
