<svg width="56" height="56" viewBox="0 0 56 56" fill="none" xmlns="http://www.w3.org/2000/svg">
<g id="oa&#229;&#136;&#135;&#229;&#155;&#190;">
<g id="Vector">
<path d="M0 6C0 2.68629 2.68629 0 6 0H50C53.3137 0 56 2.68629 56 6V50C56 53.3137 53.3137 56 50 56H6C2.68629 56 0 53.3137 0 50V6Z" fill="#E6F8EB"/>
<path d="M24.325 31.675V27.234C21.0802 25.8139 18.8125 22.5723 18.8125 18.8125C18.8125 13.7384 22.9362 9.625 28 9.625C33.074 9.625 37.1875 13.7489 37.1875 18.8125C37.1875 22.5783 34.9161 25.8149 31.675 27.2335V31.675H39.9385C42.4783 31.675 44.5375 33.7141 44.5375 36.2689V40.8625H11.4625V36.2687C11.4625 33.7316 13.5315 31.675 16.0615 31.675H24.325ZM12.3 42.7H43.6998V44.375C43.6998 45.4796 42.8043 46.375 41.6998 46.375H14.3C13.1954 46.375 12.3 45.4796 12.3 44.375L12.3 42.7Z" fill="#2BC557"/>
</g>
</g>
</svg>
