<svg t="1719834619363" class="icon" viewBox="0 0 2161 1024" version="1.1" xmlns="http://www.w3.org/2000/svg" p-id="12552" width="200" height="200"><path d="M227.555556 0h1706.666666a227.555556 227.555556 0 0 1 227.555556 227.555556v568.888888a227.555556 227.555556 0 0 1-227.555556 227.555556H56.888889a56.888889 56.888889 0 0 1-56.888889-56.888889V227.555556a227.555556 227.555556 0 0 1 227.555556-227.555556z" fill="#48C91D" fill-opacity=".1" p-id="12553"></path><path d="M769.137778 779.946667v-59.164445H551.822222v-124.017778h169.528889V539.306667H551.822222V427.804444h180.337778V370.346667H551.822222V277.048889H492.088889v93.297778H393.102222c6.826667-21.617778 12.515556-44.942222 17.635556-69.404445l-60.871111-11.377778c-17.635556 90.453333-51.768889 162.133333-102.968889 215.608889l39.253333 49.493334c34.702222-34.133333 63.146667-76.8 85.333333-126.862223h120.604445v111.502223H331.662222v57.457777h160.426667v124.017778H262.826667v59.164445h506.311111z m323.697778-396.515556V325.973333h-104.106667c-6.826667-21.048889-14.222222-39.822222-22.186667-56.888889l-61.44 10.24c9.102222 14.791111 17.066667 30.151111 25.031111 46.648889h-105.813333v57.457778h268.515556z m-22.755556 418.702222c54.613333-30.72 99.555556-68.266667 134.826667-113.208889 30.151111 46.648889 65.991111 83.626667 107.52 110.364445l35.84-52.337778c-42.666667-25.6-79.075556-62.008889-109.795556-109.226667 34.133333-62.577778 53.475556-136.533333 58.026667-221.866666h42.097778V357.831111h-150.186667c5.688889-24.462222 10.24-50.062222 14.791111-77.368889l-58.595556-10.24c-13.653333 103.537778-40.391111 185.457778-79.075555 246.328889l36.977778 46.08c9.102222-13.084444 18.204444-27.306667 26.737777-42.097778 12.515556 40.96 27.306667 78.506667 44.373334 113.208889-32.995556 47.217778-79.075556 85.333333-137.102222 113.777778l33.564444 54.613333z m-26.737778-291.271111l39.253334-38.684444c-30.151111-35.271111-55.751111-61.44-77.368889-79.075556l-35.84 35.271111c27.306667 26.737778 51.768889 54.044444 73.955555 82.488889z m-184.888889 47.786667c32.995556-38.684444 61.44-84.195556 85.902223-136.533333l-51.2-25.031112c-22.755556 50.062222-50.631111 92.16-82.488889 127.431112l47.786666 34.133333z m347.022223 18.204444c-17.066667-38.684444-31.857778-81.92-43.235556-129.706666l10.808889-31.288889h68.835555c-3.413333 60.302222-15.36 113.777778-36.408888 160.995555zM848.782222 796.444444c51.2-29.582222 93.866667-68.835556 128-117.76 17.066667 18.204444 34.702222 37.546667 51.768889 58.026667l41.528889-46.648889c-19.342222-22.755556-40.391111-44.373333-62.008889-65.422222 13.653333-27.875556 25.6-58.595556 35.84-92.16l-51.768889-22.755556c-7.964444 25.6-17.635556 50.062222-29.013333 72.817778-18.204444-16.497778-37.546667-32.426667-57.457778-48.355555l-36.977778 42.097777c21.617778 17.635556 42.666667 36.977778 64.284445 58.026667-31.857778 45.511111-72.248889 81.92-121.173334 108.088889l36.977778 54.044444z m831.715556 6.826667v-190.008889h142.222222v31.288889h59.733333V366.933333h-201.955555V269.653333h-61.44v97.28h-201.386667v277.617778h59.733333v-31.288889h141.653334v190.008889h61.44z m-61.44-248.035555h-141.653334V424.96h141.653334v130.275556z m203.662222 0h-142.222222V424.96h142.222222v130.275556z" fill="#48C91D" p-id="12554"></path></svg>