<svg t="1719833879890" class="icon" viewBox="0 0 1649 1024" version="1.1" xmlns="http://www.w3.org/2000/svg" p-id="9816" width="200" height="200"><path d="M1239.715372 441.514191l-15.464225-61.8569-30.92845 7.732113c5.154742 18.041596 10.309483 38.660563 15.464225 61.8569l30.92845-7.732113zM1102.444601 422.235457l201.653494 54.047467-7.345507 27.371678-201.653494-54.021693zM1273.221193 585.846958c-15.464225-33.505821-28.351079-59.279529-41.237934-82.475867l-25.773708 12.886854c15.464225 30.92845 28.351079 59.279529 38.660562 85.053238l28.35108-15.464225z" fill="#e65340" p-id="9817"></path><path d="M1355.697059 730.179725c38.660563-38.660563 72.166383-95.362721 100.517463-172.683846l28.351079 7.732112 7.732113-28.351079-128.868542-33.505821c15.464225-20.618967 28.351079-43.815304 41.237933-69.589012l-30.92845-12.886854c-25.773708 56.702158-61.8569 105.672204-105.672204 141.755396 5.154742 10.309483 10.309483 20.618967 12.886854 30.92845 10.309483-7.732113 20.618967-18.041596 28.351079-25.773709-7.732113 54.124788-5.154742 105.672204 5.154742 154.64225-33.505821 25.773708-72.166383 46.392675-118.559059 61.8569 7.732113 12.886854 12.886854 23.196338 15.464225 30.92845 43.815304-15.464225 82.475867-33.505821 113.404317-59.279529 12.886854 36.083192 36.083192 72.166383 64.434271 103.094834 7.732113-7.732113 18.041596-18.041596 30.92845-25.773709-28.351079-30.92845-48.970046-64.434271-64.434271-103.094833z m-7.732112-201.034925l77.321125 20.618966c-20.618967 59.279529-46.392675 108.249575-79.898496 144.332767-10.309483-48.970046-10.309483-103.094833 2.577371-164.951733zM1170.126359 503.371091l-23.196337-23.196337c-33.505821 30.92845-64.434271 54.124788-90.20798 72.166383 7.732113 10.309483 12.886854 18.041596 18.041596 25.773709 36.083192-23.196338 67.011642-48.970046 95.362721-74.743755z" fill="#e65340" p-id="9818"></path><path d="M1177.858472 668.322825c20.618967-18.041596 38.660563-38.660563 56.702158-61.8569l-25.773708-23.196338c-15.464225 20.618967-30.92845 38.660563-48.970046 56.702159-12.886854-23.196338-25.773708-43.815304-38.660563-67.011642l-25.773708 12.886854c12.886854 23.196338 25.773708 48.970046 41.237933 74.743754-36.083192 30.92845-77.321125 51.547417-123.7138 64.434271 5.154742 12.886854 10.309483 23.196338 12.886854 30.92845 23.196338-10.309483 51.547417-28.351079 77.321125-51.547417-2.577371 7.732113-7.732113 15.464225-12.886854 25.773709 20.618967-10.309483 41.237933-25.773708 61.8569-41.237934 10.309483 20.618967 23.196338 43.815304 33.505821 69.589013l33.505821-15.464225c-12.886854-23.196338-28.351079-48.970046-41.237933-74.743754zM716.509092 366.770437l54.124788 15.464225c12.886854-5.154742 25.773708-12.886854 36.083191-23.196337l-67.011641-18.041596c12.886854-15.464225 23.196338-30.92845 36.083191-48.970046l-28.351079-18.041596c-28.351079 48.970046-64.434271 87.630608-108.249575 121.136429 7.732113 10.309483 15.464225 18.041596 20.618967 25.773709 18.041596-18.041596 38.660563-36.083192 56.702158-54.124788z" fill="#e65340" p-id="9819"></path><path d="M824.758667 516.257945l172.683846 46.392676 7.732113-30.928451-175.261217-46.392675c7.732113-20.618967 15.464225-48.970046 25.773708-82.475866l152.06488 41.237933 7.732112-30.92845-149.487508-41.237933c7.732113-23.196338 15.464225-51.547417 23.196337-79.898496l-36.083192-7.732113c-7.732113 28.351079-15.464225 56.702158-23.196337 79.898496l-7.732113-2.577371c-5.154742 10.309483-10.309483 18.041596-18.041595 28.35108l18.041595 5.154741c-10.309483 36.083192-18.041596 64.434271-25.773708 82.475867L618.569 428.627337l-7.732112 30.92845 172.683846 46.392675c-36.083192 59.279529-108.249575 92.78535-219.076521 100.517463 7.732113 15.464225 12.886854 28.351079 15.464225 38.660562 108.249575-15.464225 180.415958-51.547417 219.076521-108.249575 7.732113 74.743754 51.547417 139.178025 134.023283 195.880184 10.309483-7.732113 20.618967-18.041596 33.505821-25.773709-87.630608-51.547417-134.023283-115.981688-141.755396-190.725442zM427.843559 719.870241L61.8569 621.93015c-18.041596-5.154742-30.92845-25.773708-25.773708-43.815304l20.618966-74.743755c-12.886854 2.577371-25.773708 2.577371-38.660562 2.577371L2.577371 567.805362c-10.309483 38.660563 12.886854 77.321125 48.970046 87.630609l304.129758 82.475866c20.618967-2.577371 51.547417-7.732113 72.166384-18.041596zM523.20628 745.64395c-15.464225 5.154742-30.92845 10.309483-43.815305 7.732112-10.309483-2.577371-18.041596-12.886854-20.618966-25.773708l-25.773709-7.732113-23.196337 30.92845 365.986658 97.940092c12.886854-7.732113 28.351079-18.041596 43.815305-25.773708l-296.397646-77.321125z" fill="#e65340" p-id="9820"></path><path d="M61.8569 485.329495L175.261217 62.640679c5.154742-18.041596 25.773708-30.92845 43.815304-25.773709l1164.971617 311.861871c-7.732113-12.886854-7.732113-30.92845-7.732112-38.660562L273.201309 16.248003c7.732113 10.309483 18.041596 20.618967 28.351079 28.35108-20.618967-7.732113-59.279529-20.618967-79.898496-43.815305-36.083192-5.154742-72.166383 15.464225-79.898496 51.547417L28.351079 475.020012c10.309483 5.154742 20.618967 7.732113 33.505821 10.309483zM1461.369263 982.762067c-7.732113 5.154742-18.041596 7.732113-28.351079 5.154741l-443.307783-118.559058c-41.237933-7.732113-105.672204-15.464225-172.683846-10.309483l608.259517 162.374362c5.154742 2.577371 12.886854 2.577371 18.041596 2.577371 2.577371-10.309483 10.309483-25.773708 18.041595-41.237933zM1548.999872 706.983387s10.309483 7.732113 25.773708 15.464225l69.589013-265.469196c10.309483-38.660563-12.886854-77.321125-48.970046-87.630608l-208.767038-56.702158c23.196338 12.886854 69.589013 36.083192 121.13643 41.237933-12.886854 5.154742-36.083192 10.309483-56.702159 12.886854l134.023284 36.083192c18.041596 5.154742 30.92845 25.773708 25.773708 43.815304l-131.445913 492.277829c5.154742 20.618967 7.732113 46.392675 2.577371 69.589013 10.309483-10.309483 20.618967-23.196338 25.773709-38.660563l56.702158-211.344408c-18.041596-12.886854-15.464225-51.547417-15.464225-51.547417z" fill="#e65340" p-id="9821"></path><path d="M505.164684 464.710529c-10.309483 28.351079-20.618967 48.970046-28.35108 64.434271-10.309483 15.464225-25.773708 20.618967-48.970045 12.886854l-198.457555-51.547417c-23.196338-5.154742-30.92845-20.618967-25.773708-43.815304-12.886854-10.309483-23.196338-20.618967-23.196338-20.618967s12.886854-2.577371 30.92845-7.732112l25.773709-92.78535 239.695487 64.434271-7.732112 25.773708 33.505821 10.309483 51.547417-190.725442L229.386004 145.116545l-7.732112 30.92845 288.665533 77.321125-28.351079 105.672205-239.695488-64.434271 15.464226-56.702159-33.505821-10.309483L167.529104 438.93682c-10.309483 43.815304 2.577371 69.589013 43.815304 79.898496l213.92178 56.702159c36.083192 10.309483 64.434271 0 79.898496-28.351079 7.732113-15.464225 18.041596-36.083192 30.92845-64.434271-12.886854-2.577371-23.196338-10.309483-30.92845-18.041596z" fill="#e65340" p-id="9822"></path></svg>