<svg t="1719834983515" class="icon" viewBox="0 0 2479 1024" version="1.1" xmlns="http://www.w3.org/2000/svg" p-id="15815" width="200" height="200"><path d="M107.789474 0h2263.578947c59.284211 0 107.789474 48.505263 107.789474 107.789474v808.421052c0 59.284211-48.505263 107.789474-107.789474 107.789474h-2263.578947c-59.284211 0-107.789474-48.505263-107.789474-107.789474v-808.421052c0-59.284211 48.505263-107.789474 107.789474-107.789474z" fill="#AAAAAA" p-id="15816"></path><path d="M571.284211 226.357895v86.231579h-215.578948v43.115789h215.578948v113.178948h-258.694737v43.115789h215.578947c-48.505263 86.231579-123.957895 161.684211-226.357895 215.578947l26.947369 43.11579c107.789474-70.063158 188.631579-156.294737 237.136842-258.694737h5.389474v296.421053h48.505263v-296.421053h5.389473c43.115789 97.010526 118.568421 183.242105 231.747369 258.694737l32.336842-43.11579c-107.789474-64.673684-183.242105-134.736842-226.357895-215.578947h215.578948v-43.115789h-258.694737v-113.178948h220.968421v-43.115789h-220.968421v-86.231579h-48.505263z m501.221052 167.073684h156.294737v150.905263h-188.631579v43.11579h188.631579v161.68421h-269.473684v48.505263h571.28421v-48.505263h-253.305263v-161.68421h199.410526v-48.505264h-199.410526v-150.905263h210.189474v-43.115789h-210.189474v-113.178948h-48.505263v113.178948h-140.126316c10.778947-26.947368 16.168421-59.284211 26.947369-91.621053l-48.505264-10.778947c-21.557895 107.789474-64.673684 194.021053-123.957894 258.694737l32.336842 37.726315c37.726316-37.726316 70.063158-86.231579 97.010526-145.515789z m609.010526-26.947368l37.726316 21.557894c-26.947368 59.284211-59.284211 113.178947-97.010526 156.294737l-37.726316-26.947368c37.726316-43.115789 70.063158-91.621053 97.010526-150.905263z m172.463158 123.957894c-32.336842-37.726316-59.284211-70.063158-86.231579-97.010526l26.947369-26.947368c26.947368 21.557895 53.894737 53.894737 91.621052 91.621052l-32.336842 32.336842z m-172.463158 37.726316c26.947368 21.557895 53.894737 43.115789 75.452632 64.673684 16.168421-32.336842 26.947368-59.284211 37.726316-97.010526l37.726316 16.168421c-10.778947 37.726316-26.947368 75.452632-43.11579 113.178947 26.947368 26.947368 53.894737 53.894737 75.452632 80.842106l-32.336842 37.726315c-21.557895-26.947368-48.505263-53.894737-70.063158-75.452631-37.726316 59.284211-91.621053 107.789474-150.905263 145.515789l-26.947369-43.115789c59.284211-32.336842 107.789474-80.842105 145.51579-140.126316-26.947368-26.947368-53.894737-53.894737-80.842106-75.452632l32.336842-26.947368z m64.673685-307.2c10.778947 21.557895 21.557895 48.505263 26.947368 75.452632h123.957895v43.115789h-301.810526v-43.115789h134.736842l-32.336842-64.673685 48.505263-10.778947z m237.136842 156.294737c-5.389474 16.168421-10.778947 32.336842-16.168421 43.115789 16.168421 64.673684 37.726316 123.957895 59.28421 172.463158 32.336842-64.673684 48.505263-134.736842 48.505263-215.578947h-91.621052z m21.557895 258.694737c-21.557895-48.505263-43.115789-97.010526-59.284211-156.294737-10.778947 21.557895-26.947368 43.115789-37.726316 64.673684l-32.336842-37.726316c43.115789-70.063158 75.452632-167.073684 91.621053-285.642105l48.505263 5.389474c-5.389474 37.726316-10.778947 70.063158-16.168421 102.4h183.242105v43.115789h-53.894737c-5.389474 102.4-26.947368 188.631579-70.063158 264.084211 37.726316 59.284211 80.842105 107.789474 134.736842 134.736842l-26.947368 43.115789c-53.894737-32.336842-97.010526-80.842105-129.347368-134.736842-43.115789 53.894737-91.621053 102.4-156.294737 140.126316l-26.947369-43.115789c59.284211-32.336842 113.178947-80.842105 150.905264-140.126316z" fill="#FFFFFF" p-id="15817"></path></svg>