<?xml version="1.0" standalone="no"?><!DOCTYPE svg PUBLIC "-//W3C//DTD SVG 1.1//EN" "http://www.w3.org/Graphics/SVG/1.1/DTD/svg11.dtd"><svg class="icon" width="200px" height="200.00px" viewBox="0 0 1024 1024" version="1.1" xmlns="http://www.w3.org/2000/svg"><path d="M512 512m-512 0a512 512 0 1 0 1024 0 512 512 0 1 0-1024 0Z" fill="#2CC49B" /><path d="M726.658844 300.879644c21.282133 21.282133-21.270756 103.350044-100.312177 191.499378-3.043556 3.043556-3.043556 6.081422-3.043556 12.162845l33.444978 246.2208c0 6.070044 0 9.1136-6.075733 12.162844l-21.276445 15.189333c-6.087111 6.087111-18.238578 3.043556-21.276444-6.075733l-69.910756-164.1472c-6.075733-9.119289-15.200711-12.157156-24.314311-6.081422-27.357867 24.32-54.715733 45.607822-79.035733 60.802844-6.075733 3.037867-6.075733 9.124978-6.075734 15.195023l15.195023 69.922133c0 6.075733 0 12.151467-6.075734 15.200711-6.087111 3.032178-15.200711 3.032178-18.244266-6.087111l-54.715734-88.143645-6.075733-6.081422-85.111467-54.715733c-6.081422 0-9.119289-9.119289-6.081422-15.200711 3.037867-6.070044 9.119289-9.124978 15.200711-6.070045l69.916445 15.189334c6.075733 0 12.157156 0 15.195022-6.070045 15.195022-24.32 33.4336-48.64 57.7536-75.986489 3.043556-9.124978 3.043556-18.244267-6.075734-24.32L255.516444 425.511822c-9.119289-3.043556-12.162844-12.157156-6.081422-21.282133l15.200711-21.276445c3.037867-6.081422 9.119289-6.081422 12.157156-6.081422l243.182933 33.4336c3.032178 0 9.119289 0 12.157156-3.037866 91.170133-82.067911 173.255111-127.664356 194.525866-106.387912z m-145.902933 185.423645c-3.037867-3.043556-9.119289-3.043556-12.157155 0l-51.672178 51.672178c-3.037867 3.037867-3.037867 9.119289 0 12.157155 3.043556 3.037867 9.119289 3.037867 12.162844 0l51.666489-51.672178c3.037867-3.037867 3.037867-9.119289 0-12.157155z m-36.471467-36.477156c-3.032178-3.037867-9.119289-3.037867-12.157155 0l-51.677867 51.672178c-3.043556 3.043556-3.043556 9.119289 0 12.162845 3.037867 3.037867 9.119289 3.037867 12.157156 0l51.672178-51.672178c3.043556-3.037867 3.043556-9.124978 0.005688-12.162845z" fill="#FFFFFF" /></svg>