<?xml version="1.0" standalone="no"?><!DOCTYPE svg PUBLIC "-//W3C//DTD SVG 1.1//EN" "http://www.w3.org/Graphics/SVG/1.1/DTD/svg11.dtd"><svg class="icon" width="200px" height="200.00px" viewBox="0 0 1024 1024" version="1.1" xmlns="http://www.w3.org/2000/svg"><path d="M512 512m-512 0a512 512 0 1 0 1024 0 512 512 0 1 0-1024 0Z" fill="#006FE9" /><path d="M798.037333 524.117333v147.683556a85.333333 85.333333 0 0 1-85.333333 85.333333H311.296a85.333333 85.333333 0 0 1-85.333333-85.333333V524.117333h572.074666z m-211.911111-307.2a116.508444 116.508444 0 0 1 114.631111 137.671111h11.946667a85.333333 85.333333 0 0 1 85.333333 85.333334v41.813333H225.962667v-41.813333a85.333333 85.333333 0 0 1 85.333333-85.333334h11.946667a116.508444 116.508444 0 0 1 105.927111-137.386666l8.704-0.284445h148.252444zM353.109333 375.808a42.382222 42.382222 0 1 0 0 84.764444 42.382222 42.382222 0 0 0 0-84.764444z m317.781334 0a42.382222 42.382222 0 1 0 0 84.764444 42.382222 42.382222 0 0 0 0-84.764444z m-84.764445-95.345778H437.873778a52.963556 52.963556 0 0 0-48.583111 74.183111h245.418666a52.963556 52.963556 0 0 0-48.526222-74.183111z" fill="#C0DEFF" /></svg>