<svg t="1705889528827" class="icon" viewBox="0 0 1024 1024" version="1.1" xmlns="http://www.w3.org/2000/svg" p-id="6048" width="200" height="200"><path d="M1016.32 56.96a47.36 47.36 0 0 1-14.08 32.64L579.84000001 512l422.39999999 422.4a45.44 45.44 0 0 1 0 64 45.44 45.44 0 0 1-64 0l-456.32-453.76a46.08 46.08 0 0 1 0-64l455.04-455.04a45.44 45.44 0 0 1 64 0 46.08 46.08 0 0 1 15.36 31.36z" fill="#323333" p-id="6049"></path><path d="M560.64 967.04a45.44 45.44 0 0 1-13.44 32.64 45.44 45.44 0 0 1-64 0L26.88 544.64a47.36 47.36 0 0 1 0-64l455.04-455.04a45.44 45.44 0 0 1 64 0 46.08 46.08 0 0 1 0 64L127.99999999 512 547.2 934.4a46.72 46.72 0 0 1 13.44 32.64z" fill="#323333" p-id="6050"></path></svg>