<?xml version="1.0" standalone="no"?><!DOCTYPE svg PUBLIC "-//W3C//DTD SVG 1.1//EN" "http://www.w3.org/Graphics/SVG/1.1/DTD/svg11.dtd"><svg class="icon" width="200px" height="200.00px" viewBox="0 0 1024 1024" version="1.1" xmlns="http://www.w3.org/2000/svg"><path d="M512 512m-512 0a512 512 0 1 0 1024 0 512 512 0 1 0-1024 0Z" fill="#9575CD" /><path d="M743.424 307.2h-40.96l-16.384-40.96-16.384 40.96h-40.96l34.816 26.624-14.336 47.104 40.96-30.72 36.864 30.72-16.384-47.104 32.768-26.624M655.36 446.464h-34.816l-12.288-34.816-12.288 34.816h-38.912l26.624 24.576-10.24 38.912 30.72-24.576 30.72 24.576-10.24-38.912 30.72-24.576m122.88 120.832h-36.864l-10.24-36.864-14.336 36.864h-36.864l26.624 20.48-16.384 40.96 40.96-26.624 30.72 26.624-16.384-40.96 32.768-20.48" fill="#FFFFFF" /><path d="M266.24 512c0 122.88 102.4 225.28 225.28 225.28 141.312 0 192.512-83.968 182.272-83.968h-30.72c-122.88 0-225.28-120.832-225.28-204.8 0-94.208 71.68-161.792 49.152-161.792-112.64 12.288-200.704 106.496-200.704 225.28z" fill="#FFFFFF" /></svg>