<svg t="1705889712419" class="icon" viewBox="0 0 1024 1024" version="1.1" xmlns="http://www.w3.org/2000/svg" p-id="12847" width="200" height="200"><path d="M477.866667 896c11.377778 0 17.066667-5.688889 28.444444-11.377778l420.977778-341.333333c11.377778-5.688889 17.066667-17.066667 17.066667-34.133333 0-11.377778-5.688889-28.444444-17.066667-34.133334l-420.977778-341.333333c-17.066667-11.377778-45.511111-5.688889-62.577778 11.377778s-11.377778 45.511111 5.688889 62.577777l381.155556 301.511112-381.155556 307.2c-17.066667 17.066667-22.755556 39.822222-5.688889 62.577777 5.688889 11.377778 22.755556 17.066667 34.133334 17.066667z m-329.955556 0c11.377778 0 17.066667-5.688889 28.444445-11.377778l420.977777-341.333333c11.377778-5.688889 17.066667-17.066667 17.066667-34.133333 0-11.377778-5.688889-28.444444-17.066667-34.133334l-420.977777-341.333333c-17.066667-17.066667-45.511111-11.377778-62.577778 5.688889s-11.377778 45.511111 5.688889 62.577778l381.155555 307.2-381.155555 307.2c-17.066667 17.066667-22.755556 39.822222-5.688889 62.577777 5.688889 11.377778 17.066667 17.066667 34.133333 17.066667z" p-id="12848"></path></svg>