<svg t="1715840044472" class="icon" viewBox="0 0 1024 1024" version="1.1" xmlns="http://www.w3.org/2000/svg" p-id="8439" width="200" height="200"><path d="M0 0m512 0l0 0q512 0 512 512l0 0q0 512-512 512l0 0q-512 0-512-512l0 0q0-512 512-512Z" fill="#387FFD" p-id="8440"></path><path d="M245.76 766.48448v-54.66112h21.83168a524.88192 524.88192 0 0 0 86.71232-7.94624 445.25568 445.25568 0 0 0 121.93792-41.49248 637.97248 637.97248 0 0 1-69.40672-83.968 799.82592 799.82592 0 0 1-49.29536-86.016l-46.24384-93.73696h62.54592l31.90784 66.72384a667.83232 667.83232 0 0 0 47.8208 84.15232 468.992 468.992 0 0 0 70.57408 81.24416 378.5728 378.5728 0 0 0 110.14144-158.86336l39.87456-103.03488h-426.61888v-55.296h244.51072V266.24h54.04672v47.26784h246.4768v55.48032h-56.1152l-37.72416 96.256a642.92864 642.92864 0 0 1-71.4752 138.79296 414.88384 414.88384 0 0 1-55.86944 61.56288 346.624 346.624 0 0 0 184.81152 48.128q13.27104 0 36.33152-1.16736v54.04672h-23.53152q-16.26112 0.3072-26.84928 0.3072a398.0288 398.0288 0 0 1-135.55712-23.3472 428.3392 428.3392 0 0 1-82.67776-42.8032 457.19552 457.19552 0 0 1-94.78144 41.94304 657.408 657.408 0 0 1-183.37792 23.77728z" fill="#FFFFFF" p-id="8441"></path></svg>