<svg t="1715840192396" class="icon" viewBox="0 0 1024 1024" version="1.1" xmlns="http://www.w3.org/2000/svg" p-id="10410" width="200" height="200"><path d="M966.524718 400.672821H456.520205c-24.497231 0-44.347077 19.954872-44.347077 44.557128v133.540102c0 24.602256 19.849846 44.530872 44.347077 44.530872h288.295385c33.266872 0 44.320821 11.132718 44.347077 44.530872 0.026256 89.035487-50.884923 133.566359-133.041231 133.566359h-376.779487c-24.602256 0-44.530872-19.954872-44.530872-44.530872v-400.67282c0-73.780513 59.575795-133.592615 133.014974-133.592616h598.593641c24.470974 0 44.320821-19.928615 44.320821-44.504615V44.530872C1010.740513 19.928615 990.916923 0 966.419692 0H367.826051C171.979487 0 13.128205 159.455179 13.128205 356.168205v623.32718C13.128205 1004.045128 32.978051 1024 57.475282 1024h598.646154c196.187897 0 352.439795-170.325333 354.619077-367.327179 0.131282-11.106462 0.131282-200.33641 0.131282-211.442872a44.478359 44.478359 0 0 0-44.347077-44.530872z" fill="#C71D23" p-id="10411"></path></svg>