<svg t="1715839663729" class="icon" viewBox="0 0 1063 1024" version="1.1" xmlns="http://www.w3.org/2000/svg" p-id="4265" width="200" height="200"><path d="M1020.527124 705.281046l-25.99967-41.542472c-14.406817 13.679826-32.039593 21.503727-49.233375 21.503727-7.8839 0-12.051847-0.972988-29.254628-5.375932-17.172782-4.904938-29.255629-6.369919-42.710458-6.369919-60.845228 0-100.320726 33.249578-100.320727 84.581926 0 37.139529 16.732788 60.118237 51.097352 69.405119-13.925823 3.419957-29.265628 10.751864-36.22954 19.077758-5.108935 5.856926-7.422906 13.669826-7.422906 22.946708 0 7.8439 1.863976 14.684814 4.638941 20.54174 3.245959 5.385932 7.8839 9.778876 13.464829 12.215844 11.130859 4.402944 29.255629 7.331907 57.118275 7.833901 14.396817 0 23.223705 0.490994 26.469664 0.490994 17.192782 0.972988 26.00967 3.890951 32.522587 7.321907 6.491918 3.92195 11.129859 12.717839 11.129859 22.486714 0 9.779876-6.040923 19.557752-14.847812 25.425678-8.365894 5.866926-21.840723 8.314894-39.484499 8.314894-28.794634 0-44.584434-10.751864-44.584434-30.811609 0-8.806888 0.921988-10.751864 2.784965-16.127795h-57.579269c-2.32397 4.883938-5.559929 11.723851-5.559929 25.424677 0 17.110783 6.481918 31.774597 19.486752 44.482435 21.370729 21.022733 56.217286 26.879659 90.110856 26.879659 37.139529 0 72.908074-8.785888 93.79781-32.26559 13.003835-14.663814 19.045758-30.791609 19.045758-51.814342 0-22.475715-6.501917-39.586497-20.428741-53.277324-16.731788-16.138795-35.757546-22.015721-71.986086-22.486715l-33.443575-0.481993c-6.491918 0-10.198871-2.436969-10.198871-5.866926 0-6.849913 8.806888-12.717839 24.596688-20.530739 4.648941 0.479994 6.511917 0.479994 9.286882 0.479994 50.616357 0 87.776886-31.281603 87.776886-74.289057 0-16.629789-4.649941-29.327628-13.946823-41.062479 7.9149 0.972988 10.22987 1.464981 16.270793 1.464981 17.172782 0 30.176617-5.375932 43.642446-18.575764z m38.296514-242.61292c0-28.108643-17.32578-54.149313-46.796406-75.549041a88.369878 88.369878 0 0 1 4.147947 26.233667c0 80.484978-112.393573 149.358104-271.73655 177.877742a498.163676 498.163676 0 0 0 55.94129 3.14296c142.744188 0 258.454719-58.971251 258.454719-131.705328z m-91.851834-43.785444c0 77.249019-172.787806 139.876224-385.9401 139.876224-213.132294 0-385.910101-62.627205-385.910101-139.876224 0-24.329691 17.141782-47.206401 47.2874-67.112148-4.658941 8.539892-7.12691 17.376779-7.12691 26.429665 0 71.361094 151.960071 129.20536 339.451691 129.205359 187.48162 0 339.46269-57.844266 339.46269-129.206359 0-13.495829-5.468931-26.520663-15.564802-38.767508 43.048453 22.578713 68.340132 49.939366 68.340132 79.460991zM237.771061 295.236252c-77.854012 19.014759-130.73234 56.267286-130.73234 99.111742 0 26.520663 20.274743 50.871354 54.148313 70.11211-10.168871-16.281793-15.708801-33.412576-15.708801-51.107352 0-44.563434 34.509562-85.543914 92.292828-118.1165z m761.303335-125.602406c-7.167909-8.611891-16.967785-8.591891-24.709686-1.57698-7.473905 9.901874-7.679903 16.956785-2.38497 22.424716 5.662928 5.847926 17.386779 10.895862 25.834672 4.188947 8.447893-6.727915 8.417893-16.414792 1.259984-25.036683z m-98.067755 32.122593c24.166693-33.689572 70.379107 25.885671 17.991772 34.169566-20.970734 3.328958-56.370284 26.255667-71.556092 62.464207-21.452728 53.55432-12.164846 93.202817-49.049377 117.041514-78.642002 50.819355-320.916926 69.989111-425.230601 4.812939-81.775962-51.097351-53.719318-132.094323-287.638349-310.616057-30.575612-23.326704 5.642928-48.107389 28.559638-32.25659 22.906709 15.871799 1.944975 20.090745 48.147388 66.334158 93.336815 93.377815 92.404827 9.43088 107.13964 41.184477 30.996606 66.764152 99.368738 134.009299 99.368739 134.009298 68.473131 44.574434 123.164436 54.31231 224.170154-14.027821 64.050187-43.34545 37.84652 68.924125 194.947525-11.980848 57.291273-29.521625 54.905303-9.953874 113.149563-91.134843zM219.400295 116.098526c-3.96295-5.569929-15.7288-8.129897-23.602701-0.204997-7.8539 7.9159-3.993949 15.7398 0.552993 20.44974 6.522917 6.737914 17.571777 6.184921 24.145694 2.518968 6.593916-3.645954 5.211934-13.875824-1.095986-22.763711zM56.985357 54.129313c5.129935-5.631929 11.612853-16.281793 0.481993-36.689534-8.109897-14.92981-34.979556-21.022733-44.461435-15.329806C3.554035 7.822901-8.006818 29.859621 7.823981 39.566498 28.221722 52.090339 41.595552 71.003099 56.985357 54.129313z m968.456705-27.699649c-7.177909-10.443867-22.343716-8.549891-37.355526 2.344971-15.010809 10.874862-12.174845 31.569599-7.208909 36.382538 8.70389 8.468892 31.917595 2.754965 37.324527-3.317958 13.926823-15.574802 14.417817-24.984683 7.239908-35.409551zM939.038159 92.680823c21.493727-10.136871 55.295298 22.81471 6.369919 47.544397-69.919112 35.368551-77.332018 79.245994-121.507458 107.13864-74.290057 46.929404-51.557345 1.894976-171.067828-15.143808-46.017416-6.563917-60.824228 44.779432-96.755772 29.94062-82.819949-34.210566-140.675214-27.667649-194.321533 15.974797-19.425753-8.570891-39.741495-41.635471-47.708394-54.896303 21.749724-21.29873 12.973835-56.902278 0.685991-76.43003-12.266844-19.527752-27.135656-13.987822-43.447448-31.948594-16.321793-17.939772 6.153922-64.757178 27.063656-28.794635 78.335006 134.778289 129.770353 78.724001 193.759541 70.686103 61.40822-7.709902 115.689531 25.732673 132.32932-69.017124 2.733965-15.482803 17.817774-19.189756 19.353754 6.419919 1.535981 25.631675 11.160858 88.032882 44.92243 96.08178 33.760571 8.047898 60.559231-7.9059 68.46313-16.762787 7.9059-8.847888 12.052847-7.556904 15.513803 14.407817 3.481956 21.984721 12.041847 52.345335 59.452246 18.533764 96.951769-69.191122 69.212121-95.947782 106.894643-113.734556zM650.867817 29.367627c0.306996-11.069859-4.70994-18.011771-15.636801-17.611776-10.925861 0.388995-14.837812 5.887925-14.479817 16.567789 2.724965 20.233743 6.123922 19.752749 13.363831 21.615726 7.239908 1.873976 16.434791-9.501879 16.752787-20.571739z m-388.695065 19.015759c4.76094-5.999924 5.211934-13.884824-1.095986-22.783711-3.95295-5.559929-22.445715-9.379881-30.299616-1.463981-7.8649 7.924899-0.706991 20.376741 5.426931 22.260717 11.335856 3.491956 16.373792 14.059822 25.968671 1.986975zM910.478521 758.55937c0 22.978708-13.474829 35.675547-38.091516 35.675547-21.811723 0-36.679534-10.24987-36.679535-35.675547 0-23.469702 13.465829-37.149528 37.149529-37.149529s37.621522 13.679826 37.621522 37.149529zM732.150785 898.845589c20.44974-24.44269 29.716623-53.769317 29.716623-96.787771 0-40.569485-8.355894-67.931138-27.380653-91.41084-20.44974-25.415677-46.899405-37.631522-80.813974-37.631522-64.080186 0-106.801644 52.295336-106.801644 131.008337 0 78.694001 42.249464 129.535356 106.801644 129.535355 36.679534 0 60.364234-13.189833 78.479004-34.713559z m-38.071517-97.268765c0 59.156249-11.600853 84.560926-38.53251 84.560926-12.082847 0-26.00967-6.829913-31.589599-20.519739-5.099935-12.729838-7.9049-34.232565-7.9049-63.0682 0-24.933683 2.32397-42.52646 6.511917-55.725292 5.099935-15.636801 17.172782-25.415677 32.030594-25.415678 11.150858 0 20.889735 4.884938 26.930658 13.209833 8.365894 11.222858 12.553841 33.217578 12.55384 66.96915z m-592.252481 171.568822l30.165617 35.194553c29.265628-11.734851 65.945163-38.112516 75.233045-79.665989 3.255959-13.689826 4.637941-22.486715 4.637941-66.497156V590.205507h-65.924163V869.508961c0 36.679534-1.391982 50.359361-6.501917 62.566206-6.041923 13.699826-20.909735 30.309615-37.611523 41.061479z m152.348066-383.718129H247.396939v338.755699h65.013175V778.097122h82.194956V722.390829h-82.184956V644.651816h102.603697l3.98295-29.572625c-61.664217-4.70994-117.706506-14.642814-164.840908-25.650674z m216.123256 82.604951c5.579929 10.279869 8.805888 21.513727 9.747877 35.696547 8.836888-12.717839 23.694699-25.907671 35.296552-31.795596 5.119935-2.436969 13.465829-3.889951 20.43974-3.889951 9.276882 0 13.454829 0.971988 23.202706 5.374932L541.813202 735.090668c-6.041923-3.409957-11.140859-4.884938-18.104771-4.884938-13.935823 0-26.479664 6.860913-38.091516 21.022733v176.944754h-62.21821V760.996339c0-33.719572-3.716953-59.135249-8.826888-73.29707l55.726292-15.656801z" fill="#40BE46" p-id="4266"></path></svg>