<?xml version="1.0" encoding="UTF-8"?>
<svg width="200px" height="200px" viewBox="0 0 200 200" version="1.1" xmlns="http://www.w3.org/2000/svg" xmlns:xlink="http://www.w3.org/1999/xlink">
    <title>1024</title>
    <defs>
        <polygon id="path-1" points="0 0 164.0625 0 164.0625 164.0625 0 164.0625"></polygon>
    </defs>
    <g id="Logo" stroke="none" stroke-width="1" fill="none" fill-rule="evenodd">
        <g id="Logo备份" transform="translate(-55.000000, -151.000000)">
            <g id="1024" transform="translate(55.000000, 151.000000)">
                <rect id="矩形" x="0" y="0" width="200" height="200"></rect>
                <g id="编组" transform="translate(17.968750, 17.968750)">
                    <g>
                        <mask id="mask-2" fill="white">
                            <use xlink:href="#path-1"></use>
                        </mask>
                        <g id="Clip-2"></g>
                        <path d="M162.579678,52.7538245 C162.459623,51.7788312 162.336818,50.809336 162.223178,49.8490043 C162.104039,49.2112268 161.873093,48.6385099 161.516592,48.1226065 C160.913566,47.3198865 160.308706,46.5428242 159.685518,45.8069975 C158.850629,44.7907686 158.030403,43.7736234 157.193681,42.7628926 C151.750863,36.28157 146.023029,30.0229197 140.042253,24.0254283 C134.042232,18.0517619 127.792019,12.335589 121.304445,6.87782601 C120.296346,6.04761559 119.282748,5.21190709 118.25632,4.38994379 C117.502996,3.76774414 116.737757,3.16845318 115.954189,2.56091509 C115.439142,2.20537243 114.859027,1.97720202 114.235839,1.84982978 C113.288226,1.72520658 112.303955,1.62715745 111.311436,1.50528329 C110.013738,1.36050046 108.709624,1.25053881 107.399096,1.13507908 C98.9530601,0.391005284 90.5024422,0.0198847309 82.0399105,-0.000274904113 C73.5663813,0.0198847309 65.0983508,0.391005284 56.6669785,1.13507908 C55.3491183,1.25053881 54.0431721,1.36050046 52.7289777,1.50528329 C51.767618,1.62715745 50.7943444,1.72520658 49.8210707,1.84982978 C49.2171279,1.97720202 48.6177673,2.20537243 48.0898901,2.56091509 C47.3310665,3.16845318 46.5594127,3.76774414 45.8005892,4.38994379 C44.7576651,5.21190709 43.7605637,6.04761559 42.7478825,6.87782601 C36.2758878,12.335589 30.0275077,18.0517619 24.0146562,24.0254283 C18.0540426,30.0229197 12.3197929,36.28157 6.87605907,42.7628926 C6.02925602,43.7736234 5.19436687,44.7907686 4.37230807,45.8069975 C3.74545387,46.5428242 3.14517682,47.3198865 2.5421504,48.1226065 C2.19114871,48.6385099 1.94645562,49.2112268 1.82548375,49.8490043 C1.70267898,50.809336 1.59178811,51.7788312 1.49189468,52.7538245 C1.35992537,54.0467901 1.23620415,55.371828 1.11706519,56.6647937 C0.376570749,65.1199278 0.0118222503,73.572313 -9.16453514e-05,82.0366106 C0.0118222503,90.5064064 0.376570749,98.967955 1.11706519,107.393766 C1.23620415,108.704142 1.35992537,110.014519 1.49189468,111.331309 C1.59178811,112.316382 1.70267898,113.28771 1.82548375,114.248958 C1.94645562,114.864744 2.19114871,115.446624 2.5421504,115.979938 C3.14517682,116.738673 3.74545387,117.52215 4.37230807,118.273555 C5.19436687,119.306278 6.02925602,120.308761 6.87605907,121.322241 C12.3197929,127.809978 18.0540426,134.052134 24.0146562,140.042295 C30.0275077,146.030623 36.2758878,151.734883 42.7478825,157.189897 C43.7605637,158.031104 44.7576651,158.874143 45.8005892,159.704353 C46.5594127,160.308226 47.3310665,160.920346 48.0898901,161.493979 C48.6177673,161.874263 49.2171279,162.122593 49.8210707,162.212395 C50.7943444,162.37184 51.767618,162.466223 52.7289777,162.573436 C54.0431721,162.704474 55.3491183,162.834595 56.6669785,162.952804 C65.0983508,163.68863 73.5663813,164.0625 82.0399105,164.0625 C90.5024422,164.0625 98.9530601,163.68863 107.399096,162.952804 C108.709624,162.834595 110.013738,162.704474 111.311436,162.573436 C112.303955,162.466223 113.288226,162.37184 114.235839,162.212395 C114.859027,162.122593 115.439142,161.874263 115.954189,161.493979 C116.737757,160.920346 117.502996,160.308226 118.25632,159.704353 C119.282748,158.874143 120.296346,158.031104 121.304445,157.189897 C127.792019,151.734883 134.042232,146.030623 140.042253,140.042295 C146.023029,134.052134 151.750863,127.809978 157.193681,121.322241 C158.030403,120.308761 158.850629,119.306278 159.685518,118.273555 C160.308706,117.52215 160.913566,116.738673 161.516592,115.979938 C161.873093,115.446624 162.104039,114.864744 162.223178,114.248958 C162.336818,113.28771 162.459623,112.316382 162.579678,111.331309 C162.690569,110.014519 162.828954,108.704142 162.923348,107.393766 C163.658344,98.967955 164.04967,90.5064064 164.0625,82.0366106 C164.04967,73.572313 163.658344,65.1199278 162.923348,56.6647937 C162.828954,55.371828 162.690569,54.0467901 162.579678,52.7538245 M152.485859,106.486582 C152.402462,107.742894 152.279657,108.989126 152.148604,110.23994 C152.118361,110.513928 152.094534,110.786083 152.05421,111.034413 C151.886499,111.247922 151.727036,111.473343 151.548327,111.663027 C150.753762,112.660013 149.959197,113.620344 149.153634,114.592588 C143.928016,120.836577 138.39447,126.866141 132.643724,132.636378 C126.867318,138.39287 120.818724,143.931272 114.579509,149.161781 C113.606235,149.956254 112.634795,150.773635 111.655106,151.556196 C111.459901,151.734883 111.246368,151.88883 111.044748,152.061103 C110.772561,152.091342 110.512288,152.138076 110.2456,152.160985 C108.981811,152.281026 107.725353,152.399235 106.496389,152.517444 C98.3665298,153.240441 90.1880987,153.584072 82.0399105,153.584072 C73.88714,153.584072 65.7142076,153.240441 57.5559384,152.517444 C56.3278907,152.399235 55.0641013,152.281026 53.8305549,152.160985 C53.5583682,152.138076 53.2907637,152.091342 53.0011644,152.061103 C52.8105421,151.88883 52.5970084,151.734883 52.3953887,151.556196 C51.4111176,150.773635 50.4341781,149.956254 49.4948133,149.161781 C43.2400181,143.931272 37.2024223,138.39287 31.4086032,132.636378 C25.6606068,126.866141 20.1453895,120.836577 14.8950273,114.592588 C14.1087102,113.620344 13.2921501,112.660013 12.4893368,111.663027 C12.3262081,111.473343 12.1621629,111.247922 11.9761229,111.034413 C11.9587103,110.786083 11.9495457,110.513928 11.9101382,110.23994 C11.7708373,108.989126 11.6526148,107.742894 11.5362252,106.486582 C10.8369712,98.368664 10.4868859,90.2104263 10.4575594,82.0366106 C10.4868859,73.8747075 10.8369712,65.7311313 11.5362252,57.5811407 C11.6526148,56.3358251 11.7708373,55.086844 11.9101382,53.8360303 C11.9495457,53.5666243 11.9587103,53.2999673 11.9761229,53.0388084 C12.1621629,52.8252995 12.3262081,52.6053762 12.4893368,52.3982818 C13.2921501,51.4223722 14.1087102,50.4684549 14.8950273,49.4897963 C20.1453895,43.25772 25.6606068,37.2281565 31.4086032,31.4377595 C37.2024223,25.6858491 43.2400181,20.177687 49.4948133,14.9270185 C50.4341781,14.115135 51.4111176,13.3114986 52.3953887,12.5225238 C52.5970084,12.335589 52.8105421,12.1788937 53.0011644,12.0093695 C53.2907637,11.9919589 53.5583682,11.9562213 53.8305549,11.9204838 C55.0641013,11.7903625 56.3278907,11.6804009 57.5559384,11.5649411 C65.7142076,10.862103 73.88714,10.4946478 82.0399105,10.4799862 C90.1880987,10.4946478 98.3665298,10.862103 106.496389,11.5649411 C107.725353,11.6804009 108.981811,11.7903625 110.2456,11.9204838 C110.512288,11.9562213 110.772561,11.9919589 111.044748,12.0093695 C111.246368,12.1788937 111.459901,12.335589 111.655106,12.5225238 C112.634795,13.3114986 113.606235,14.115135 114.579509,14.9270185 C120.818724,20.177687 126.867318,25.6858491 132.643724,31.4377595 C138.39447,37.2281565 143.928016,43.25772 149.153634,49.4897963 C149.959197,50.4684549 150.753762,51.4223722 151.548327,52.3982818 C151.727036,52.6053762 151.886499,52.8252995 152.05421,53.0388084 C152.094534,53.2999673 152.118361,53.5666243 152.148604,53.8360303 C152.279657,55.086844 152.402462,56.3358251 152.485859,57.5811407 C153.197027,65.7311313 153.589269,73.8747075 153.601183,82.0366106 C153.589269,90.2104263 153.197027,98.368664 152.485859,106.486582" id="Fill-1" fill="#DB0E16" mask="url(#mask-2)"></path>
                    </g>
                    <path d="M125.230623,38.8286482 C130.769668,44.4201979 136.094263,50.2078458 141.134758,56.2410748 C141.406944,56.5608799 141.680047,56.877936 141.965981,57.213319 C142.007221,57.6485838 142.047545,58.0701035 142.060376,58.4787943 C142.320648,61.2150065 142.515853,63.9163976 142.664319,66.6498609 C138.465129,66.5783858 134.267771,66.5344011 130.056668,66.4748386 C129.961356,65.0636641 129.891706,63.6671512 129.772567,62.2504787 C125.484481,57.2426421 121.007606,52.4098278 116.352022,47.7199636 C112.018113,43.4030527 107.522909,39.2437534 102.897568,35.2319861 C103.248569,66.4455155 103.248569,97.6278891 102.897568,128.840502 C107.522909,124.825986 112.018113,120.664854 116.352022,116.347943 C121.007606,111.66266 125.484481,106.830762 129.772567,101.832089 C129.938445,99.5265601 130.099741,97.2301944 130.211548,94.9182508 C126.213978,94.9429922 122.212742,94.9659009 118.221587,95.0016384 C118.458032,90.7910238 118.588168,86.5666639 118.611996,82.339555 C126.772098,82.297403 134.955112,82.2827414 143.122545,82.249753 C143.11613,90.0322884 142.747716,97.8239873 142.060376,105.591861 C142.047545,106.012465 142.007221,106.422072 141.965981,106.861002 C141.680047,107.191803 141.406944,107.512525 141.134758,107.856155 C136.094263,113.857312 130.769668,119.673366 125.230623,125.231011 C119.656753,130.780409 113.862018,136.056735 107.819839,141.132381 C107.522909,141.417365 107.167325,141.701433 106.870394,141.96809 C106.431412,141.999246 106.017175,142.034983 105.589192,142.093629 C99.5048567,142.596704 93.3976105,142.92384 87.3004453,143.065874 C87.5029815,102.401141 87.5029815,61.6988378 87.3004453,21.0047819 C93.3976105,21.1376522 99.5048567,21.4730352 105.589192,21.9981021 C106.017175,22.0246761 106.431412,22.0750752 106.870394,22.1190599 C107.167325,22.3866332 107.522909,22.6560392 107.819839,22.9318597 C113.862018,27.9900954 119.656753,33.2874977 125.230623,38.8286482 Z" id="Fill-3" fill="#DB0E16"></path>
                    <path d="M76.7686532,21.0046902 C76.5661169,61.6959971 76.5661169,102.407464 76.7686532,143.065782 C71.6209338,142.947573 66.4732144,142.703825 61.3383253,142.311628 C60.9167567,111.88799 60.8177797,81.46985 61.0175666,51.0553752 C55.9000902,65.3540545 51.0034791,79.7571974 46.3708066,94.2308989 C42.2192721,86.9138678 37.9971708,79.5931712 33.6825077,72.3302046 C33.5725332,75.5649096 33.5184625,78.8106109 33.5010499,82.0398178 C33.527627,95.8253428 34.6337864,109.576047 36.7947838,123.172804 C31.9724054,118.232777 27.3488974,113.134222 22.910513,107.856063 C22.6429086,107.512433 22.368889,107.191712 22.0930365,106.86091 C22.0554619,106.427478 22.0123886,106.017871 21.9977253,105.59177 C21.30397,97.7652495 20.9667151,89.890163 20.940138,82.0398178 C20.9667151,74.1711458 21.30397,66.3116372 21.9977253,58.4759536 C22.0123886,58.0663465 22.0554619,57.6457432 22.0930365,57.2132274 C22.368889,56.8750953 22.6429086,56.5635373 22.910513,56.2345687 C26.184085,52.3510899 29.5621327,48.5528314 33.0226611,44.8324624 C36.3704658,50.2902254 39.7054401,55.7809769 42.9845108,61.2955534 C47.5209557,48.1468897 52.2599368,35.0990241 57.20512,22.1162192 C63.6972767,21.5205936 70.2334232,21.1384769 76.7686532,21.0046902" id="Fill-5" fill="#DB0E16"></path>
                </g>
            </g>
        </g>
    </g>
</svg>