<svg t="1715840508424" class="icon" viewBox="0 0 1024 1024" version="1.1" xmlns="http://www.w3.org/2000/svg" p-id="18553" width="200" height="200"><path d="M362.1 307.4c16.6 0 30-20.2 30-45.1V147.1c0-24.9-13.4-45-30-45s-30 20.2-30 45.1v115.2c0 24.8 13.4 45 30 45zM650.4 307.4c16.6 0 30-20.2 30-45.1V147.1c0-24.9-13.4-45-30-45s-30 20.2-30 45v115.2c0 24.9 13.5 45.1 30 45.1zM476.5 231.1h59.4c19.9 0 36-13.4 36-30s-16.1-30-36-30h-59.4c-19.9 0-36 13.4-36 30s16.1 30 36 30z" p-id="18554" fill="#1296db"></path><path d="M846.9 171h-95.8c-16.6 0-30 13.4-30 30s13.4 30 30 30h95.8c5.1 0 9.2 4.1 9.2 9.2v615.6c0 5.1-4.1 9.2-9.2 9.2H172.3c-5.1 0-9.2-4.1-9.2-9.2V240.2c0-5.1 4.1-9.2 9.2-9.2h79.8c16.6 0 30-13.4 30-30s-13.4-30-30-30h-79.8c-38.1 0-69.2 31-69.2 69.2v615.6c0 38.1 31 69.2 69.2 69.2h674.6c38.1 0 69.2-31 69.2-69.2V240.2c0-38.2-31-69.2-69.2-69.2z" p-id="18555" fill="#1296db"></path><path d="M373.8 739.1h271.8c27.6 0 50-22.4 50-50v-278c0-27.6-22.4-50-50-50H373.8c-27.6 0-50 22.4-50 50v278c0 27.6 22.3 50 50 50z m10-318h251.8v258H383.8v-258z" p-id="18556" fill="#1296db"></path><path d="M550.9 517.7h-82.6c-16.6 0-30 13.4-30 30s13.4 30 30 30h82.6c16.6 0 30-13.4 30-30s-13.4-30-30-30z" p-id="18557" fill="#1296db"></path></svg>