<svg t="1715837612153" class="icon" viewBox="0 0 1024 1024" version="1.1" xmlns="http://www.w3.org/2000/svg" p-id="7584" width="200" height="200"><path d="M460.8 537.6m-460.8 0a460.8 460.8 0 1 0 921.6 0 460.8 460.8 0 1 0-921.6 0Z" fill="#00B37D" opacity=".5" p-id="7585"></path><path d="M512 460.8m-460.8 0a460.8 460.8 0 1 0 921.6 0 460.8 460.8 0 1 0-921.6 0Z" fill="#009BF3" opacity=".5" p-id="7586"></path><path d="M563.2 563.2m-460.8 0a460.8 460.8 0 1 0 921.6 0 460.8 460.8 0 1 0-921.6 0Z" fill="#4D73FF" opacity=".5" p-id="7587"></path><path d="M512 512m-371.2 0a371.2 371.2 0 1 0 742.4 0 371.2 371.2 0 1 0-742.4 0Z" fill="#FFFFFF" p-id="7588" data-spm-anchor-id="a313x.search_index.0.i0.4a1d3a815OdF3G" class="selected"></path></svg>