<svg t="1715840341054" class="icon" viewBox="0 0 2304 1024" version="1.1" xmlns="http://www.w3.org/2000/svg" p-id="15477" width="200" height="200"><path d="M147.84 287.68l141.568 580.288 143.744-580.288h138.88l144.32 576.832 150.592-576.832h123.712L776.96 1024h-128.64L498.56 454.08 353.28 1024H224.832L12.352 287.68H147.84z m959.744 3.456h125.76V1024h-125.76V291.136z m0-277.12h125.76v140.288h-125.76V14.08z m310.016 0h118.976v586.496l317.632-312.832h158.08l-281.856 275.712L2028.16 1024h-158.08l-229.632-371.2-103.808 94.848V1024H1417.6V14.08z m706.752 277.12h125.824V1024h-125.824V291.136z m0-277.12h125.824v140.288h-125.824V14.08z" fill="#1296db" p-id="15478"></path></svg>