<svg t="1695202315227" class="icon" viewBox="0 0 1024 1024" version="1.1" xmlns="http://www.w3.org/2000/svg" p-id="13005" data-spm-anchor-id="a313x.search_index.0.i11.57f63a81dV94bH" width="200" height="200"><path d="M812.2 499.2L712.9 400c-5.9-5.9-15.4-5.9-21.2 0-5.9 5.9-5.9 15.4 0 21.2l76.4 76.4H528.7v-244l78.5 78.5c2.9 2.9 6.8 4.4 10.6 4.4s7.7-1.5 10.6-4.4c5.9-5.9 5.9-15.4 0-21.2l-99.2-99.2c-4-4-9.2-6.2-14.9-6.2-5.6 0-10.9 2.2-14.9 6.2l-99.2 99.2c-5.9 5.9-5.9 15.4 0 21.2 5.9 5.9 15.4 5.9 21.2 0l77.3-77.3v242.9H256.6l77.2-77.2c5.9-5.9 5.9-15.4 0-21.2-5.9-5.9-15.4-5.9-21.2 0l-99.2 99.2c-8.2 8.2-8.2 21.5 0 29.7l99.2 99.2c2.9 2.9 6.8 4.4 10.6 4.4s7.7-1.5 10.6-4.4c5.9-5.9 5.9-15.4 0-21.2l-78.5-78.5h243.4v238.1l-77.3-77.3c-5.9-5.9-15.4-5.9-21.2 0-5.9 5.9-5.9 15.4 0 21.2l99.2 99.2c4 4 9.2 6.2 14.9 6.2 5.6 0 10.9-2.2 14.9-6.2l99.2-99.2c5.9-5.9 5.9-15.4 0-21.2-5.9-5.9-15.4-5.9-21.2 0L528.7 767V527.7H771L691.7 607c-5.9 5.9-5.9 15.4 0 21.2 2.9 2.9 6.8 4.4 10.6 4.4s7.7-1.5 10.6-4.4l99.2-99.2c4-4 6.2-9.2 6.2-14.9s-2.2-10.9-6.1-14.9z" p-id="13006" fill="#6B6B6B"></path></svg>